<svg width="64" height="64" viewBox="0 0 64 64" fill="none" xmlns="http://www.w3.org/2000/svg">
<path d="M6.12927 31.7533V2C6.12927 1.44772 6.57699 1 7.12927 1H54.1686C54.7209 1 55.1686 1.44771 55.1686 2V31.8399C55.1686 34.3863 54.1972 36.8367 52.4525 38.6915L48.5 42.8933L41.9363 48.2987C40.6651 49.3456 39.1551 50.0623 37.5404 50.3852L30.0981 51.8737C30.0333 51.8866 29.9667 51.8866 29.9019 51.8737L22.969 50.4871C21.033 50.0999 19.2551 49.1484 17.8591 47.7524L13 42.8933L8.94839 38.7128C7.14033 36.8473 6.12927 34.3513 6.12927 31.7533Z" fill="#034402" stroke="black" stroke-width="0.75"/>
<path d="M12.9143 15.6419H8.8998V16.8933H8.0824V13.5418H8.8998V14.7903H12.9143L12.9143 15.6419Z" fill="white"/>
<path d="M12.9143 8.59239L12.9143 9.51874L11.8167 9.88698V11.5728L12.9143 11.9209V12.8243L8.0824 11.1816V10.2811L12.9143 8.59239ZM11.0026 10.1603L9.20962 10.7414L11.0026 11.311V10.1603Z" fill="white"/>
<path d="M11.3421 7.32254L11.2498 6.494C11.5684 6.44414 11.8025 6.34344 11.9519 6.19193C12.1013 6.0385 12.176 5.83232 12.176 5.5734C12.176 5.29914 12.1101 5.09297 11.9782 4.95488C11.8442 4.81487 11.6882 4.74486 11.5102 4.74486C11.396 4.74486 11.2993 4.77459 11.2202 4.83405C11.1389 4.89158 11.0686 4.99323 11.0092 5.139C10.9697 5.23873 10.8994 5.466 10.7983 5.82081C10.6686 6.27728 10.5093 6.59757 10.3204 6.78169C10.0545 7.04061 9.73039 7.17007 9.34806 7.17007C9.10196 7.17007 8.87234 7.10965 8.6592 6.98882C8.44386 6.86608 8.28016 6.69059 8.1681 6.46236C8.05603 6.23221 8 5.95507 8 5.63094C8 5.1016 8.13294 4.70363 8.39881 4.43704C8.66469 4.16853 9.01956 4.02756 9.46341 4.01414L9.50626 4.86569C9.25797 4.90213 9.07998 4.98077 8.97231 5.1016C8.86245 5.22051 8.80751 5.39983 8.80751 5.63957C8.80751 5.88698 8.86574 6.08069 8.9822 6.2207C9.05691 6.31084 9.15689 6.35591 9.28214 6.35591C9.3964 6.35591 9.49418 6.31372 9.57548 6.22933C9.67875 6.12193 9.78642 5.86109 9.89848 5.44682C10.0105 5.03255 10.127 4.72664 10.2479 4.5291C10.3665 4.32964 10.5302 4.17428 10.739 4.06305C10.9455 3.94989 11.2015 3.89331 11.5069 3.89331C11.7838 3.89331 12.0431 3.96044 12.2848 4.09469C12.5265 4.22895 12.7067 4.41882 12.8253 4.66431C12.9418 4.9098 13 5.21571 13 5.58203C13 6.11521 12.8594 6.52469 12.5781 6.81046C12.2947 7.09623 11.8827 7.26692 11.3421 7.32254Z" fill="white"/>
<path d="M12.9143 15.6669H12.9393V15.6419L12.9393 14.7903V14.7653H12.9143H8.9248V13.5418V13.5168H8.8998H8.0824H8.0574V13.5418V16.8933V16.9183H8.0824H8.8998H8.9248V16.8933V15.6669H12.9143ZM12.9393 8.59239V8.55717L12.9061 8.56879L8.07415 10.2575L8.0574 10.2634V10.2811V11.1816V11.1995L8.07435 11.2052L12.9063 12.8479L12.9393 12.8592V12.8243V11.9209V11.9026L12.9219 11.8971L11.8417 11.5545V9.90496L12.9223 9.54244L12.9393 9.53672V9.51874L12.9393 8.59239ZM11.3173 7.32531L11.32 7.34995L11.3447 7.34741C11.889 7.2914 12.3071 7.11917 12.5959 6.82806L12.5959 6.82799C12.8832 6.53617 13.025 6.11954 13.025 5.58203C13.025 5.21323 12.9664 4.90339 12.8479 4.6536L12.8478 4.65343C12.7269 4.40323 12.5431 4.20956 12.2969 4.07284C12.0515 3.93652 11.788 3.86831 11.5069 3.86831C11.1986 3.86831 10.9382 3.92541 10.7271 4.04105C10.5145 4.15437 10.3475 4.31282 10.2265 4.51618C10.1037 4.71681 9.98658 5.02542 9.87435 5.44029C9.81847 5.64687 9.76386 5.81454 9.71058 5.94361C9.65706 6.07325 9.60576 6.16176 9.55746 6.212C9.48074 6.29163 9.3894 6.33091 9.28214 6.33091C9.16374 6.33091 9.07104 6.28871 9.00145 6.20475L9.00142 6.20471C8.88985 6.07058 8.83251 5.88323 8.83251 5.63957C8.83251 5.40315 8.88674 5.23106 8.99068 5.11856L8.99068 5.11856L8.99098 5.11823C9.0931 5.00363 9.26436 4.92646 9.50989 4.89043L9.53237 4.88713L9.53123 4.86444L9.48838 4.01288L9.48715 3.98841L9.46266 3.98915C9.01361 4.00273 8.65224 4.14559 8.38107 4.41942C8.10893 4.69233 7.975 5.09772 7.975 5.63094C7.975 5.95788 8.03151 6.23896 8.14562 6.4733L8.14565 6.47337C8.25986 6.70598 8.42701 6.88525 8.64682 7.01054L8.64687 7.01057C8.86378 7.13354 9.09765 7.19507 9.34806 7.19507C9.73669 7.19507 10.0671 7.06321 10.3378 6.7996L10.3378 6.79959C10.5315 6.61086 10.6923 6.28544 10.8223 5.82766C10.9235 5.47266 10.9934 5.24672 11.0324 5.14832C11.0909 5.00469 11.1589 4.90806 11.2346 4.85445L11.2346 4.85446L11.2352 4.85403C11.3093 4.79832 11.4005 4.76986 11.5102 4.76986C11.6807 4.76986 11.8304 4.8366 11.9602 4.97216C12.086 5.10391 12.151 5.30279 12.151 5.5734C12.151 5.82723 12.0779 6.02662 11.934 6.17444C11.7898 6.32059 11.5618 6.41987 11.246 6.4693L11.2223 6.473L11.225 6.49677L11.3173 7.32531ZM8.6592 6.98882C8.44386 6.86608 8.28016 6.69059 8.1681 6.46236L10.7983 5.82081C10.6686 6.27728 10.5093 6.59757 10.3204 6.78169C10.0545 7.04061 9.73039 7.17007 9.34806 7.17007C9.10196 7.17007 8.87234 7.10965 8.6592 6.98882ZM10.9776 11.2769L9.29144 10.7412L10.9776 10.1947V11.2769Z" stroke="black" stroke-opacity="0.5" stroke-width="0.05"/>
<path d="M13.1301 19.3601H8.086L8.086 18.4742H13.1301V19.3601Z" fill="white"/>
<path d="M13.1301 24.8322L8.086 24.8322L8.086 22.9677C8.086 22.4988 8.13187 22.1586 8.22363 21.9471C8.31309 21.7336 8.47365 21.563 8.70533 21.4353C8.937 21.3076 9.20194 21.2438 9.50013 21.2438C9.87861 21.2438 10.1917 21.3406 10.4395 21.5341C10.6849 21.7276 10.8397 22.0169 10.9039 22.402C11.0324 22.2105 11.1735 22.0529 11.3272 21.9291C11.4808 21.8034 11.7538 21.6349 12.146 21.4234L13.1301 20.8876V21.9471L12.0325 22.5876C11.6403 22.815 11.3937 22.9707 11.2928 23.0545C11.1895 23.1383 11.1196 23.227 11.0829 23.3208C11.0439 23.4146 11.0244 23.5632 11.0244 23.7668V23.9463L13.1301 23.9463V24.8322ZM10.2192 23.9463V23.2909C10.2192 22.8659 10.1986 22.6005 10.1573 22.4948C10.116 22.389 10.0449 22.3062 9.94399 22.2464C9.84306 22.1865 9.7169 22.1566 9.56551 22.1566C9.39577 22.1566 9.25928 22.1965 9.15606 22.2763C9.05055 22.3541 8.98403 22.4649 8.9565 22.6085C8.94503 22.6804 8.9393 22.8958 8.9393 23.255V23.9463H10.2192Z" fill="white"/>
<path d="M11.3114 21.9097C11.1692 22.0242 11.038 22.167 10.9177 22.3378C10.847 21.9778 10.6933 21.7024 10.4549 21.5145L10.4548 21.5144C10.2019 21.3168 9.88302 21.2188 9.50013 21.2188C9.19826 21.2188 8.92908 21.2835 8.69326 21.4134C8.45744 21.5434 8.29259 21.7179 8.20063 21.9373C8.10676 22.1538 8.061 22.4983 8.061 22.9677L8.061 24.8322L8.061 24.8572H8.086L13.1301 24.8572H13.1551L11.3272 21.9291M11.3114 21.9097C11.3114 21.9097 11.3115 21.9097 11.3115 21.9097L11.3272 21.9291M11.3114 21.9097C11.3114 21.9098 11.3114 21.9098 11.3113 21.9098L11.3272 21.9291M11.3114 21.9097C11.4671 21.7824 11.7419 21.6129 12.1342 21.4014M11.3272 21.9291C11.4808 21.8034 11.7538 21.6349 12.146 21.4234M12.1342 21.4014L12.1341 21.4014L12.146 21.4234M12.1342 21.4014L12.146 21.4234M12.1342 21.4014L12.146 21.4234M13.1301 20.8876V20.9161L13.142 20.9096L13.1301 20.8876ZM13.1301 20.8876H13.1051V20.9012L13.1301 20.8876ZM13.1301 19.3851H13.1551V19.3601V18.4742V18.4492H13.1301H8.086H8.061L8.061 18.4742L8.061 19.3601L8.061 19.3851H8.086H13.1301ZM11.0244 23.9213V23.9463H11.0494V23.9213H11.0244ZM10.9039 22.402C10.9107 22.392 10.9174 22.3821 10.9242 22.3723L10.9039 22.402ZM9.1709 22.2964L9.1709 22.2964L9.17135 22.2961C9.26904 22.2206 9.39963 22.1816 9.56551 22.1816C9.71369 22.1816 9.83513 22.2109 9.93124 22.2679C10.0275 22.325 10.0948 22.4035 10.134 22.5039C10.1532 22.553 10.1685 22.6424 10.1788 22.7751C10.1891 22.9068 10.1942 23.0787 10.1942 23.2909V23.9213H8.9643V23.255C8.9643 22.8955 8.97009 22.6826 8.98113 22.6128C9.00766 22.4748 9.07114 22.37 9.1709 22.2964Z" stroke="black" stroke-opacity="0.5" stroke-width="0.05"/>
<g filter="url(#filter0_d_0_1)">
<path d="M13.1301 29.9961H8.086L8.086 26.7429H8.9393L8.9393 29.1102H10.0575L10.0575 26.9075H10.9074V29.1102H12.2802V26.6591H13.1301L13.1301 29.9961Z" fill="white" shape-rendering="crispEdges"/>
<path d="M13.1301 34.0376L8.086 35.6059L8.086 34.6452L11.8192 33.5348L8.086 32.4604L8.086 31.5206L13.1301 33.0919V34.0376Z" fill="white" shape-rendering="crispEdges"/>
<path d="M13.1301 30.0211H13.1551V29.9961L13.1551 26.6591V26.6341H13.1301H12.2802H12.2552V26.6591V29.0852H10.9324V26.9075V26.8825H10.9074H10.0575H10.0325V26.9075L10.0325 29.0852H8.9643L8.9643 26.7429V26.7179H8.9393H8.086H8.061L8.061 26.7429L8.061 29.9961L8.061 30.0211H8.086H13.1301ZM13.1375 34.0615L13.1551 34.056V34.0376V33.0919V33.0735L13.1375 33.068L8.09343 31.4968L8.061 31.4867L8.061 31.5206L8.061 32.4604V32.4792L8.07908 32.4844L11.7302 33.5352L8.07887 34.6212L8.061 34.6265L8.061 34.6452L8.061 35.6059L8.061 35.6398L8.09342 35.6298L13.1375 34.0615Z" stroke="black" stroke-opacity="0.5" stroke-width="0.05" shape-rendering="crispEdges"/>
</g>
<path d="M1 52.6985V44.0003C3.24993 42.7448 7.67978 41.1522 7.67978 41.1522C7.81141 41.0809 8.21757 40.9796 8.70171 40.9274C9.91997 40.796 11.632 40.975 10.7059 42.7214V48.4746L5.37364 55.5102V50.7951L1 52.6985Z" fill="#034402"/>
<path d="M10.7059 42.7214C11.1677 41.2856 10.7415 41.061 8.51583 40.9147M10.7059 42.7214C12 40.281 8.14263 40.9013 7.67978 41.1522C7.67978 41.1522 3.24993 42.7448 1 44.0003V52.6985L10.7059 48.4746M10.7059 42.7214C11.0603 41.6198 10.7059 42.7214 10.3933 43.281C10.0807 43.8405 6.27705 46.5608 5.37364 47.0423M10.7059 42.7214V48.4746M5.37364 47.0423L10.7059 48.4746M5.37364 47.0423V50.3445V55.5102L10.7059 48.4746" stroke="black" stroke-width="0.75"/>
<path d="M58.8937 45.0196V53.7178L54.6578 52.0287V56.2579L49.0812 48.7144V43.634C48.4442 41.5789 51.7511 41.9205 52.214 42.1715C52.214 42.1715 56.6438 43.7641 58.8937 45.0196Z" fill="#034402"/>
<path d="M50.8772 41.8933C50.8937 42.0287 48.5417 41.8933 49.0812 43.634M49.0812 43.634C48.4442 41.5789 51.7511 41.9205 52.214 42.1715C52.214 42.1715 56.6438 43.7641 58.8937 45.0196V53.7178L54.6578 52.0287M49.0812 43.634C49.1513 43.8604 49.2693 44.1159 49.4443 44.4038C50.6639 45.8444 53.7544 46.6488 54.6578 47.1302C54.6578 48.5553 54.6548 49.0024 54.6578 52.0287M49.0812 43.634V48.7144L54.6578 56.2579M54.6578 52.0287V56.2579M54.6578 47.2519V51.7549V56.2579" stroke="black" stroke-width="0.75"/>
<path d="M38.7725 50.9712C31.3718 51.6964 19.5478 50.4711 19.5478 50.4711L10.8126 48.587L5.48035 47.1547V51.8886V56.6226C23.9633 61.0431 36.2811 60.9236 54.7641 56.6226V52.3933V52.1196V47.5627L49.1874 49.079L38.7725 50.9712Z" fill="white"/>
<path d="M54.7641 47.4949V52.3933M54.7641 47.5627L49.1874 49.079L38.7725 50.9712C31.3718 51.6964 19.5478 50.4711 19.5478 50.4711L10.8126 48.587L5.48035 47.1547V51.8886V56.6226C23.9633 61.0431 36.2811 60.9236 54.7641 56.6226V52.1196" stroke="black" stroke-width="0.75"/>
<path d="M10.8071 52.7842C10.667 52.6904 10.5285 52.6218 10.3918 52.5785C10.1866 52.5135 10.0016 52.4999 9.83674 52.5379C9.67342 52.5764 9.55427 52.6642 9.47927 52.8012C9.43651 52.8793 9.42 52.9545 9.42972 53.0266C9.441 53.0993 9.47021 53.1692 9.51736 53.2363C9.56606 53.304 9.62672 53.3697 9.69933 53.4336C9.77195 53.4976 9.848 53.5619 9.92748 53.6265C10.015 53.6966 10.0981 53.7681 10.1767 53.8409C10.256 53.9126 10.3213 53.9883 10.3725 54.068C10.4252 54.1482 10.455 54.2338 10.4617 54.3248C10.47 54.4162 10.4465 54.5124 10.3913 54.6134C10.2603 54.8526 10.0516 55.0007 9.76492 55.058C9.47984 55.1157 9.14536 55.0837 8.76151 54.962C8.51441 54.8837 8.25865 54.7645 7.99424 54.6046L7.98815 54.5857L8.43787 54.009L8.54968 54.0296L8.43262 54.5933C8.56972 54.696 8.72452 54.7747 8.89702 54.8294C9.12858 54.9028 9.33056 54.9203 9.50297 54.8818C9.67693 54.8439 9.80404 54.7516 9.88429 54.605C9.92639 54.5281 9.94225 54.4541 9.93187 54.3832C9.92214 54.311 9.89305 54.2425 9.84459 54.1778C9.79768 54.1136 9.73837 54.0503 9.66665 53.9881C9.59559 53.9247 9.52109 53.8609 9.44316 53.7967C9.35411 53.7262 9.26981 53.6536 9.19027 53.579C9.11072 53.5044 9.04412 53.4262 8.99046 53.3443C8.93902 53.2617 8.91046 53.1723 8.90481 53.076C8.89981 52.9785 8.92692 52.8757 8.98612 52.7676C9.10519 52.55 9.30219 52.415 9.57712 52.3626C9.8536 52.3106 10.1659 52.3398 10.514 52.4501C10.7595 52.5279 11.0046 52.6317 11.2491 52.7614L11.2585 52.7792L10.8131 53.298L10.7129 53.2811L10.8071 52.7842Z" fill="#034402"/>
<path d="M12.8633 55.499C12.698 55.5279 12.5374 55.5373 12.3813 55.5273C12.2253 55.5172 12.0861 55.4958 11.9638 55.4631C11.6144 55.3696 11.3713 55.2182 11.2346 55.0091C11.0985 54.7988 11.094 54.5568 11.2213 54.2831C11.3479 54.0107 11.5508 53.8145 11.8297 53.6946C12.1103 53.5751 12.4173 53.56 12.7509 53.6493C13.0304 53.7242 13.2177 53.8474 13.3129 54.0192C13.4086 54.1897 13.4034 54.3891 13.2973 54.6174C13.2813 54.6518 13.2626 54.6861 13.2413 54.7204L11.731 54.3161C11.6083 54.5799 11.6006 54.7904 11.708 54.9475C11.8159 55.1033 12.0405 55.227 12.382 55.3184C12.5345 55.3592 12.7024 55.3917 12.8858 55.416L12.8633 55.499ZM12.8454 54.4426L12.8711 54.3874C12.9522 54.2131 12.9735 54.0788 12.9353 53.9844C12.8986 53.8904 12.8088 53.8242 12.6659 53.786C12.4769 53.7354 12.3078 53.7494 12.1587 53.8282C12.0096 53.907 11.8939 54.0195 11.8115 54.1658L12.8454 54.4426Z" fill="#034402"/>
<path d="M15.6101 56.1777C15.447 56.2134 15.2871 56.2295 15.1305 56.2259C14.9739 56.2224 14.8333 56.2068 14.7088 56.1792C14.3532 56.1004 14.0997 55.9595 13.9484 55.7565C13.7976 55.5522 13.7762 55.3109 13.8842 55.0325C13.9916 54.7554 14.1805 54.5512 14.4509 54.42C14.7228 54.2891 15.0285 54.2613 15.368 54.3365C15.6526 54.3996 15.8484 54.5148 15.9555 54.6823C16.0631 54.8485 16.0719 55.0477 15.9819 55.2799C15.9683 55.3149 15.9521 55.3499 15.9332 55.385L14.3958 55.0443C14.2917 55.3127 14.2988 55.523 14.417 55.6753C14.5358 55.8264 14.769 55.9404 15.1165 56.0174C15.2717 56.0518 15.4418 56.0773 15.6267 56.0939L15.6101 56.1777ZM15.5182 55.1243L15.54 55.0681C15.6087 54.8908 15.6206 54.7558 15.5758 54.6632C15.5326 54.5709 15.4382 54.5087 15.2927 54.4764C15.1003 54.4338 14.9324 54.4548 14.7889 54.5396C14.6454 54.6244 14.5377 54.7415 14.4657 54.891L15.5182 55.1243Z" fill="#034402"/>
<path d="M10.4144 54.0407C10.3606 53.957 10.2924 53.8782 10.2105 53.804C10.131 53.7304 10.0471 53.6583 9.95889 53.5876C9.87993 53.5234 9.80443 53.4595 9.73237 53.3961C9.66222 53.3344 9.60427 53.2714 9.55811 53.2074C9.51507 53.146 9.48923 53.0835 9.47921 53.0195C9.47134 52.9602 9.48444 52.8959 9.52313 52.8252C9.59075 52.7017 9.69749 52.6222 9.84809 52.5866C10.0022 52.5512 10.1778 52.5631 10.3767 52.6261C10.4994 52.6651 10.6244 52.7253 10.7518 52.8076L10.6638 53.2718L10.6543 53.3219L10.7046 53.3304L10.8048 53.3473L10.8326 53.352L10.851 53.3306L11.2964 52.8118L11.3186 52.7859L11.3027 52.7558L11.2933 52.738L11.2861 52.7244L11.2725 52.7172C11.0255 52.5862 10.7777 52.4813 10.5291 52.4025C10.1754 52.2903 9.85453 52.2595 9.56788 52.3134L9.56774 52.3135C9.28028 52.3683 9.06948 52.5111 8.94226 52.7435C8.87977 52.8577 8.84929 52.9697 8.85487 53.0786L8.85487 53.0786L8.8549 53.079C8.86104 53.1836 8.8922 53.2812 8.94802 53.3708L8.94801 53.3708L8.94864 53.3717C9.0047 53.4573 9.07396 53.5385 9.15607 53.6155C9.23656 53.691 9.32178 53.7643 9.41174 53.8356C9.48906 53.8993 9.56293 53.9626 9.63335 54.0254L9.63335 54.0254L9.63388 54.0259C9.70329 54.0861 9.7599 54.1466 9.80421 54.2073L9.8042 54.2073L9.80456 54.2078C9.84849 54.2664 9.87385 54.327 9.88232 54.3898L9.88231 54.3898L9.8824 54.3904C9.89088 54.4484 9.8785 54.5114 9.84043 54.581C9.76763 54.714 9.65318 54.7979 9.49231 54.833L9.49209 54.833C9.33093 54.869 9.1383 54.8534 8.91213 54.7817C8.75535 54.732 8.61411 54.6621 8.48811 54.572L8.59863 54.0398L8.60903 53.9897L8.55875 53.9805L8.44694 53.9598L8.4171 53.9543L8.39844 53.9783L7.94872 54.555L7.93242 54.5759L7.94057 54.6011L7.94666 54.6199L7.9524 54.6377L7.96836 54.6473C8.23553 54.809 8.49489 54.9299 8.7464 55.0097C9.13533 55.133 9.47874 55.1669 9.77471 55.107L10.5115 54.3207C10.5041 54.221 10.4714 54.1275 10.4144 54.0407ZM10.4144 54.0407C10.4144 54.0408 10.4145 54.0409 10.4145 54.041L10.3725 54.068L10.4142 54.0405C10.4143 54.0406 10.4143 54.0407 10.4144 54.0407ZM9.93187 54.3832C9.92214 54.311 9.89305 54.2425 9.84459 54.1778C9.79768 54.1136 9.73837 54.0503 9.66665 53.9881L9.93187 54.3832ZM9.93187 54.3832C9.94225 54.4541 9.92639 54.5281 9.88429 54.605M9.93187 54.3832L9.88429 54.605M9.88429 54.605C9.80404 54.7516 9.67693 54.8439 9.50297 54.8818L9.88429 54.605ZM12.8719 55.5482L12.9032 55.5427L12.9115 55.5121L12.934 55.4291L12.949 55.3739L12.8923 55.3664C12.7107 55.3424 12.545 55.3103 12.3949 55.2701C12.0563 55.1794 11.8466 55.0597 11.7492 54.9191C11.6611 54.7902 11.6571 54.6129 11.7592 54.3754L13.2284 54.7687L13.2642 54.7783L13.2838 54.7468C13.3061 54.7109 13.3257 54.6748 13.3426 54.6385C13.4533 54.4003 13.4623 54.1833 13.3565 53.9949C13.2522 53.8066 13.0501 53.6777 12.7638 53.601C12.421 53.5092 12.1023 53.5242 11.8102 53.6486L11.81 53.6487C11.5199 53.7733 11.3078 53.9783 11.1759 54.262C11.0431 54.5476 11.0451 54.8084 11.1926 55.0363L11.1928 55.0365C11.3387 55.2597 11.5948 55.4161 11.9509 55.5114C12.077 55.5452 12.2195 55.567 12.3781 55.5772C12.5384 55.5875 12.703 55.5778 12.8719 55.5482ZM12.8887 54.0025L12.8887 54.0025L12.889 54.0031C12.9189 54.0772 12.9056 54.1946 12.8258 54.3663L12.8178 54.3835L11.8892 54.1348C11.9635 54.0237 12.0609 53.9364 12.1821 53.8724C12.3183 53.8005 12.4741 53.7864 12.653 53.8343C12.7881 53.8704 12.8602 53.9294 12.8887 54.0025ZM15.6207 56.2265L15.6527 56.2195L15.6591 56.1874L15.6758 56.1037L15.6866 56.0491L15.6312 56.0441C15.4481 56.0277 15.2801 56.0025 15.1274 55.9686C14.7827 55.8922 14.5641 55.7814 14.4564 55.6445C14.3591 55.5191 14.3428 55.3426 14.4275 55.1025L15.9224 55.4338L15.9593 55.442L15.9772 55.4087C15.997 55.3719 16.0141 55.335 16.0285 55.298C16.1226 55.0552 16.116 54.8383 15.9976 54.6552C15.8806 54.4724 15.6702 54.3523 15.3789 54.2877C15.0301 54.2104 14.7127 54.2384 14.4292 54.3749L14.429 54.375C14.1475 54.5117 13.9496 54.7254 13.8375 55.0145C13.7247 55.3055 13.7453 55.5655 13.9082 55.7862L13.9083 55.7864C14.0694 56.0024 14.3357 56.1477 14.698 56.228C14.8263 56.2565 14.9702 56.2723 15.1294 56.2759C15.2902 56.2795 15.454 56.263 15.6207 56.2265ZM14.5406 54.8564C14.6069 54.7425 14.6979 54.6515 14.8144 54.5827C14.945 54.5055 15.0995 54.4848 15.2819 54.5252C15.4196 54.5557 15.4965 54.6118 15.5305 54.6844L15.5305 54.6844L15.5308 54.685C15.5661 54.758 15.5609 54.8757 15.4933 55.05L15.4871 55.0661L14.5406 54.8564Z" stroke="black" stroke-opacity="0.8" stroke-width="0.1"/>
<mask id="path-16-outside-1_0_1" maskUnits="userSpaceOnUse" x="15.5351" y="52.3504" width="12.1264" height="6.25697" fill="black">
<rect fill="white" x="15.5351" y="52.3504" width="12.1264" height="6.25697"/>
<path d="M19.1946 56.7574C18.9759 56.7149 18.8132 56.6843 18.7065 56.6655C18.6359 56.6531 18.542 56.638 18.4247 56.62C18.388 56.5321 18.3416 56.4364 18.2855 56.3331C18.135 56.0488 17.9655 55.7673 17.777 55.4884L18.8723 54.9798L18.6173 54.8729L18.6311 54.7952C18.8416 54.8362 18.9969 54.8655 19.097 54.8831C19.1873 54.899 19.3594 54.9272 19.6133 54.9678L19.5989 55.0475C19.4229 55.0512 19.2949 55.0594 19.2148 55.0721C19.1351 55.0834 19.0361 55.1154 18.9176 55.1681L18.2739 55.4516L18.8291 56.3545C18.8914 56.455 18.9428 56.5234 18.9834 56.56C19.0256 56.5968 19.1024 56.6363 19.2139 56.6786L19.1946 56.7574ZM17.4426 53.6326L17.4498 53.5677C17.7537 53.5757 18.0351 53.5778 18.2942 53.574L18.3116 53.5931C18.2443 53.7762 18.1502 54.0622 18.0294 54.451L17.6432 55.6933C17.585 55.8807 17.5295 56.0646 17.4769 56.245C17.4688 56.2823 17.4832 56.3082 17.5202 56.3227L17.7419 56.4198L17.7226 56.4986C17.5268 56.4601 17.3486 56.4268 17.1878 56.3985C17.0269 56.3702 16.836 56.3387 16.6149 56.3038L16.6293 56.2242L16.9404 56.2088C16.976 56.2057 16.9999 56.1898 17.0123 56.1613C17.06 56.0188 17.1113 55.8595 17.166 55.6835L17.4087 54.9028C17.613 54.2455 17.7272 53.8669 17.7513 53.767L17.4426 53.6326Z"/>
<path d="M21.193 54.3389C21.1763 54.4066 21.1353 54.4585 21.0699 54.4945C21.0048 54.5292 20.9291 54.5406 20.8429 54.5288C20.76 54.5174 20.6969 54.4883 20.6536 54.4413C20.612 54.3947 20.5992 54.3387 20.6152 54.2735C20.6322 54.2044 20.6729 54.1538 20.7374 54.1217C20.8021 54.0883 20.8793 54.0777 20.9688 54.09C21.0501 54.1011 21.1118 54.1288 21.1541 54.1729C21.1967 54.2158 21.2097 54.2711 21.193 54.3389ZM20.1524 55.0368C20.4529 55.0344 20.7325 55.0265 20.9912 55.0131L21.0103 55.0296C20.9595 55.1945 20.9095 55.3767 20.8605 55.5761L20.6793 56.3127C20.6416 56.4662 20.6172 56.5725 20.606 56.6318C20.6008 56.6668 20.6161 56.692 20.6517 56.7075L20.9241 56.8123L20.9098 56.8916C20.6819 56.8564 20.4867 56.8276 20.3243 56.8053C20.1618 56.783 19.9681 56.7584 19.7434 56.7316L19.7528 56.6516L20.0573 56.6259C20.0979 56.6209 20.1235 56.604 20.1341 56.575C20.1497 56.5256 20.1719 56.442 20.2008 56.3244L20.3584 55.6837C20.3996 55.5162 20.4343 55.361 20.4626 55.2182L20.1488 55.1038L20.1524 55.0368Z"/>
<path d="M21.7497 55.1667C22.038 55.1527 22.311 55.1332 22.5688 55.1084L22.5915 55.1243L22.5515 55.3486C22.8707 55.2182 23.1556 55.1652 23.4064 55.1895C23.6438 55.2125 23.8202 55.282 23.9356 55.3981C24.0529 55.513 24.0948 55.6646 24.0613 55.8527L23.9398 56.5351C23.9111 56.6962 23.8915 56.8155 23.8811 56.8932C23.8766 56.9281 23.8943 56.9528 23.9342 56.9671L24.2009 57.0598L24.1918 57.1396C23.9718 57.1143 23.7799 57.0938 23.616 57.0779C23.4522 57.062 23.2696 57.0463 23.0683 57.0307L23.0724 56.9505L23.3331 56.9187C23.3734 56.9122 23.3979 56.8942 23.4065 56.8649C23.4114 56.847 23.4195 56.8065 23.4307 56.7433L23.5808 55.9005C23.6091 55.742 23.5799 55.6239 23.4935 55.546C23.4072 55.4669 23.268 55.418 23.0757 55.3993C22.9068 55.383 22.7255 55.4034 22.5316 55.4607L22.3811 56.3054C22.3524 56.4665 22.3278 56.6142 22.3073 56.7486C22.3028 56.7835 22.3181 56.8073 22.3533 56.8199L22.6034 56.9051L22.5943 56.9848C22.3877 56.9609 22.2025 56.941 22.0386 56.9251C21.8748 56.9092 21.6805 56.8924 21.4558 56.8745L21.4598 56.7943L21.7675 56.7572C21.8063 56.7492 21.8291 56.7311 21.8358 56.7029C21.8522 56.6206 21.8671 56.5414 21.8807 56.4654L21.9981 55.8062C22.0281 55.6374 22.0527 55.4805 22.0717 55.3355L21.7506 55.2336L21.7497 55.1667Z"/>
<path d="M25.432 55.7914C25.4152 55.9599 25.446 56.0923 25.5244 56.1887C25.6044 56.2852 25.7285 56.3377 25.8968 56.3461C26.0583 56.3542 26.1837 56.3175 26.273 56.236C26.3641 56.1533 26.4179 56.029 26.4344 55.8631C26.4502 55.7037 26.419 55.5758 26.3406 55.4794C26.264 55.3831 26.1398 55.3306 25.9682 55.322C25.8067 55.3139 25.6805 55.3499 25.5897 55.43C25.5005 55.5102 25.4479 55.6307 25.432 55.7914ZM25.2714 57.0748C25.1438 57.2013 25.0745 57.3202 25.0634 57.4317C25.0521 57.5457 25.103 57.6375 25.2161 57.707C25.3293 57.7765 25.4885 57.8164 25.6938 57.8267C25.9378 57.8389 26.1557 57.8075 26.3475 57.7325C26.5391 57.6587 26.6424 57.5467 26.6574 57.3963C26.6655 57.3147 26.6264 57.2489 26.54 57.199C26.4552 57.1504 26.2883 57.1199 26.0393 57.1074C25.9501 57.103 25.8523 57.1 25.7459 57.0986C25.6412 57.0972 25.54 57.0941 25.4424 57.0892C25.3886 57.0865 25.3316 57.0817 25.2714 57.0748ZM26.7559 55.4611C26.8714 55.5751 26.9218 55.7065 26.9069 55.8556C26.8862 56.0642 26.7754 56.2261 26.5746 56.341C26.3739 56.4547 26.1313 56.5044 25.847 56.4902C25.6854 56.4821 25.5427 56.4554 25.4187 56.4101C25.3166 56.5183 25.2623 56.6048 25.2559 56.6696C25.2524 56.7046 25.2727 56.7297 25.3169 56.7449C25.3628 56.7589 25.4481 56.7691 25.5726 56.7753C25.6668 56.7801 25.7772 56.7836 25.9038 56.7861C26.0304 56.7885 26.1484 56.7925 26.2577 56.798C26.5253 56.8114 26.7325 56.8615 26.8795 56.9483C27.0282 57.034 27.0949 57.1539 27.0796 57.3081C27.0564 57.5414 26.8951 57.7183 26.5956 57.8387C26.2979 57.9592 25.9672 58.0104 25.6038 57.9922C25.306 57.9772 25.0717 57.9264 24.9011 57.8397C24.732 57.7544 24.6536 57.6501 24.6659 57.527C24.6807 57.378 24.8344 57.2176 25.1271 57.0461C24.9588 56.9868 24.8789 56.9151 24.8873 56.8308C24.899 56.7129 25.0357 56.5543 25.2973 56.3551C25.047 56.2188 24.9335 56.034 24.9567 55.8008C24.9768 55.5986 25.0855 55.4405 25.2829 55.3267C25.4819 55.2129 25.7286 55.1634 26.0231 55.1782C26.1005 55.1821 26.2049 55.1951 26.3362 55.2174C26.4606 55.2418 26.5582 55.2559 26.6288 55.2594C26.8829 55.2721 27.117 55.2819 27.3311 55.2888L27.3358 55.3691L26.7559 55.4611Z"/>
</mask>
<path d="M19.1946 56.7574C18.9759 56.7149 18.8132 56.6843 18.7065 56.6655C18.6359 56.6531 18.542 56.638 18.4247 56.62C18.388 56.5321 18.3416 56.4364 18.2855 56.3331C18.135 56.0488 17.9655 55.7673 17.777 55.4884L18.8723 54.9798L18.6173 54.8729L18.6311 54.7952C18.8416 54.8362 18.9969 54.8655 19.097 54.8831C19.1873 54.899 19.3594 54.9272 19.6133 54.9678L19.5989 55.0475C19.4229 55.0512 19.2949 55.0594 19.2148 55.0721C19.1351 55.0834 19.0361 55.1154 18.9176 55.1681L18.2739 55.4516L18.8291 56.3545C18.8914 56.455 18.9428 56.5234 18.9834 56.56C19.0256 56.5968 19.1024 56.6363 19.2139 56.6786L19.1946 56.7574ZM17.4426 53.6326L17.4498 53.5677C17.7537 53.5757 18.0351 53.5778 18.2942 53.574L18.3116 53.5931C18.2443 53.7762 18.1502 54.0622 18.0294 54.451L17.6432 55.6933C17.585 55.8807 17.5295 56.0646 17.4769 56.245C17.4688 56.2823 17.4832 56.3082 17.5202 56.3227L17.7419 56.4198L17.7226 56.4986C17.5268 56.4601 17.3486 56.4268 17.1878 56.3985C17.0269 56.3702 16.836 56.3387 16.6149 56.3038L16.6293 56.2242L16.9404 56.2088C16.976 56.2057 16.9999 56.1898 17.0123 56.1613C17.06 56.0188 17.1113 55.8595 17.166 55.6835L17.4087 54.9028C17.613 54.2455 17.7272 53.8669 17.7513 53.767L17.4426 53.6326Z" fill="#034402"/>
<path d="M21.193 54.3389C21.1763 54.4066 21.1353 54.4585 21.0699 54.4945C21.0048 54.5292 20.9291 54.5406 20.8429 54.5288C20.76 54.5174 20.6969 54.4883 20.6536 54.4413C20.612 54.3947 20.5992 54.3387 20.6152 54.2735C20.6322 54.2044 20.6729 54.1538 20.7374 54.1217C20.8021 54.0883 20.8793 54.0777 20.9688 54.09C21.0501 54.1011 21.1118 54.1288 21.1541 54.1729C21.1967 54.2158 21.2097 54.2711 21.193 54.3389ZM20.1524 55.0368C20.4529 55.0344 20.7325 55.0265 20.9912 55.0131L21.0103 55.0296C20.9595 55.1945 20.9095 55.3767 20.8605 55.5761L20.6793 56.3127C20.6416 56.4662 20.6172 56.5725 20.606 56.6318C20.6008 56.6668 20.6161 56.692 20.6517 56.7075L20.9241 56.8123L20.9098 56.8916C20.6819 56.8564 20.4867 56.8276 20.3243 56.8053C20.1618 56.783 19.9681 56.7584 19.7434 56.7316L19.7528 56.6516L20.0573 56.6259C20.0979 56.6209 20.1235 56.604 20.1341 56.575C20.1497 56.5256 20.1719 56.442 20.2008 56.3244L20.3584 55.6837C20.3996 55.5162 20.4343 55.361 20.4626 55.2182L20.1488 55.1038L20.1524 55.0368Z" fill="#034402"/>
<path d="M21.7497 55.1667C22.038 55.1527 22.311 55.1332 22.5688 55.1084L22.5915 55.1243L22.5515 55.3486C22.8707 55.2182 23.1556 55.1652 23.4064 55.1895C23.6438 55.2125 23.8202 55.282 23.9356 55.3981C24.0529 55.513 24.0948 55.6646 24.0613 55.8527L23.9398 56.5351C23.9111 56.6962 23.8915 56.8155 23.8811 56.8932C23.8766 56.9281 23.8943 56.9528 23.9342 56.9671L24.2009 57.0598L24.1918 57.1396C23.9718 57.1143 23.7799 57.0938 23.616 57.0779C23.4522 57.062 23.2696 57.0463 23.0683 57.0307L23.0724 56.9505L23.3331 56.9187C23.3734 56.9122 23.3979 56.8942 23.4065 56.8649C23.4114 56.847 23.4195 56.8065 23.4307 56.7433L23.5808 55.9005C23.6091 55.742 23.5799 55.6239 23.4935 55.546C23.4072 55.4669 23.268 55.418 23.0757 55.3993C22.9068 55.383 22.7255 55.4034 22.5316 55.4607L22.3811 56.3054C22.3524 56.4665 22.3278 56.6142 22.3073 56.7486C22.3028 56.7835 22.3181 56.8073 22.3533 56.8199L22.6034 56.9051L22.5943 56.9848C22.3877 56.9609 22.2025 56.941 22.0386 56.9251C21.8748 56.9092 21.6805 56.8924 21.4558 56.8745L21.4598 56.7943L21.7675 56.7572C21.8063 56.7492 21.8291 56.7311 21.8358 56.7029C21.8522 56.6206 21.8671 56.5414 21.8807 56.4654L21.9981 55.8062C22.0281 55.6374 22.0527 55.4805 22.0717 55.3355L21.7506 55.2336L21.7497 55.1667Z" fill="#034402"/>
<path d="M25.432 55.7914C25.4152 55.9599 25.446 56.0923 25.5244 56.1887C25.6044 56.2852 25.7285 56.3377 25.8968 56.3461C26.0583 56.3542 26.1837 56.3175 26.273 56.236C26.3641 56.1533 26.4179 56.029 26.4344 55.8631C26.4502 55.7037 26.419 55.5758 26.3406 55.4794C26.264 55.3831 26.1398 55.3306 25.9682 55.322C25.8067 55.3139 25.6805 55.3499 25.5897 55.43C25.5005 55.5102 25.4479 55.6307 25.432 55.7914ZM25.2714 57.0748C25.1438 57.2013 25.0745 57.3202 25.0634 57.4317C25.0521 57.5457 25.103 57.6375 25.2161 57.707C25.3293 57.7765 25.4885 57.8164 25.6938 57.8267C25.9378 57.8389 26.1557 57.8075 26.3475 57.7325C26.5391 57.6587 26.6424 57.5467 26.6574 57.3963C26.6655 57.3147 26.6264 57.2489 26.54 57.199C26.4552 57.1504 26.2883 57.1199 26.0393 57.1074C25.9501 57.103 25.8523 57.1 25.7459 57.0986C25.6412 57.0972 25.54 57.0941 25.4424 57.0892C25.3886 57.0865 25.3316 57.0817 25.2714 57.0748ZM26.7559 55.4611C26.8714 55.5751 26.9218 55.7065 26.9069 55.8556C26.8862 56.0642 26.7754 56.2261 26.5746 56.341C26.3739 56.4547 26.1313 56.5044 25.847 56.4902C25.6854 56.4821 25.5427 56.4554 25.4187 56.4101C25.3166 56.5183 25.2623 56.6048 25.2559 56.6696C25.2524 56.7046 25.2727 56.7297 25.3169 56.7449C25.3628 56.7589 25.4481 56.7691 25.5726 56.7753C25.6668 56.7801 25.7772 56.7836 25.9038 56.7861C26.0304 56.7885 26.1484 56.7925 26.2577 56.798C26.5253 56.8114 26.7325 56.8615 26.8795 56.9483C27.0282 57.034 27.0949 57.1539 27.0796 57.3081C27.0564 57.5414 26.8951 57.7183 26.5956 57.8387C26.2979 57.9592 25.9672 58.0104 25.6038 57.9922C25.306 57.9772 25.0717 57.9264 24.9011 57.8397C24.732 57.7544 24.6536 57.6501 24.6659 57.527C24.6807 57.378 24.8344 57.2176 25.1271 57.0461C24.9588 56.9868 24.8789 56.9151 24.8873 56.8308C24.899 56.7129 25.0357 56.5543 25.2973 56.3551C25.047 56.2188 24.9335 56.034 24.9567 55.8008C24.9768 55.5986 25.0855 55.4405 25.2829 55.3267C25.4819 55.2129 25.7286 55.1634 26.0231 55.1782C26.1005 55.1821 26.2049 55.1951 26.3362 55.2174C26.4606 55.2418 26.5582 55.2559 26.6288 55.2594C26.8829 55.2721 27.117 55.2819 27.3311 55.2888L27.3358 55.3691L26.7559 55.4611Z" fill="#034402"/>
<path d="M19.1946 56.7574C18.9759 56.7149 18.8132 56.6843 18.7065 56.6655C18.6359 56.6531 18.542 56.638 18.4247 56.62C18.388 56.5321 18.3416 56.4364 18.2855 56.3331C18.135 56.0488 17.9655 55.7673 17.777 55.4884L18.8723 54.9798L18.6173 54.8729L18.6311 54.7952C18.8416 54.8362 18.9969 54.8655 19.097 54.8831C19.1873 54.899 19.3594 54.9272 19.6133 54.9678L19.5989 55.0475C19.4229 55.0512 19.2949 55.0594 19.2148 55.0721C19.1351 55.0834 19.0361 55.1154 18.9176 55.1681L18.2739 55.4516L18.8291 56.3545C18.8914 56.455 18.9428 56.5234 18.9834 56.56C19.0256 56.5968 19.1024 56.6363 19.2139 56.6786L19.1946 56.7574ZM17.4426 53.6326L17.4498 53.5677C17.7537 53.5757 18.0351 53.5778 18.2942 53.574L18.3116 53.5931C18.2443 53.7762 18.1502 54.0622 18.0294 54.451L17.6432 55.6933C17.585 55.8807 17.5295 56.0646 17.4769 56.245C17.4688 56.2823 17.4832 56.3082 17.5202 56.3227L17.7419 56.4198L17.7226 56.4986C17.5268 56.4601 17.3486 56.4268 17.1878 56.3985C17.0269 56.3702 16.836 56.3387 16.6149 56.3038L16.6293 56.2242L16.9404 56.2088C16.976 56.2057 16.9999 56.1898 17.0123 56.1613C17.06 56.0188 17.1113 55.8595 17.166 55.6835L17.4087 54.9028C17.613 54.2455 17.7272 53.8669 17.7513 53.767L17.4426 53.6326Z" stroke="black" stroke-opacity="0.8" stroke-width="0.2" mask="url(#path-16-outside-1_0_1)"/>
<path d="M21.193 54.3389C21.1763 54.4066 21.1353 54.4585 21.0699 54.4945C21.0048 54.5292 20.9291 54.5406 20.8429 54.5288C20.76 54.5174 20.6969 54.4883 20.6536 54.4413C20.612 54.3947 20.5992 54.3387 20.6152 54.2735C20.6322 54.2044 20.6729 54.1538 20.7374 54.1217C20.8021 54.0883 20.8793 54.0777 20.9688 54.09C21.0501 54.1011 21.1118 54.1288 21.1541 54.1729C21.1967 54.2158 21.2097 54.2711 21.193 54.3389ZM20.1524 55.0368C20.4529 55.0344 20.7325 55.0265 20.9912 55.0131L21.0103 55.0296C20.9595 55.1945 20.9095 55.3767 20.8605 55.5761L20.6793 56.3127C20.6416 56.4662 20.6172 56.5725 20.606 56.6318C20.6008 56.6668 20.6161 56.692 20.6517 56.7075L20.9241 56.8123L20.9098 56.8916C20.6819 56.8564 20.4867 56.8276 20.3243 56.8053C20.1618 56.783 19.9681 56.7584 19.7434 56.7316L19.7528 56.6516L20.0573 56.6259C20.0979 56.6209 20.1235 56.604 20.1341 56.575C20.1497 56.5256 20.1719 56.442 20.2008 56.3244L20.3584 55.6837C20.3996 55.5162 20.4343 55.361 20.4626 55.2182L20.1488 55.1038L20.1524 55.0368Z" stroke="black" stroke-opacity="0.8" stroke-width="0.2" mask="url(#path-16-outside-1_0_1)"/>
<path d="M21.7497 55.1667C22.038 55.1527 22.311 55.1332 22.5688 55.1084L22.5915 55.1243L22.5515 55.3486C22.8707 55.2182 23.1556 55.1652 23.4064 55.1895C23.6438 55.2125 23.8202 55.282 23.9356 55.3981C24.0529 55.513 24.0948 55.6646 24.0613 55.8527L23.9398 56.5351C23.9111 56.6962 23.8915 56.8155 23.8811 56.8932C23.8766 56.9281 23.8943 56.9528 23.9342 56.9671L24.2009 57.0598L24.1918 57.1396C23.9718 57.1143 23.7799 57.0938 23.616 57.0779C23.4522 57.062 23.2696 57.0463 23.0683 57.0307L23.0724 56.9505L23.3331 56.9187C23.3734 56.9122 23.3979 56.8942 23.4065 56.8649C23.4114 56.847 23.4195 56.8065 23.4307 56.7433L23.5808 55.9005C23.6091 55.742 23.5799 55.6239 23.4935 55.546C23.4072 55.4669 23.268 55.418 23.0757 55.3993C22.9068 55.383 22.7255 55.4034 22.5316 55.4607L22.3811 56.3054C22.3524 56.4665 22.3278 56.6142 22.3073 56.7486C22.3028 56.7835 22.3181 56.8073 22.3533 56.8199L22.6034 56.9051L22.5943 56.9848C22.3877 56.9609 22.2025 56.941 22.0386 56.9251C21.8748 56.9092 21.6805 56.8924 21.4558 56.8745L21.4598 56.7943L21.7675 56.7572C21.8063 56.7492 21.8291 56.7311 21.8358 56.7029C21.8522 56.6206 21.8671 56.5414 21.8807 56.4654L21.9981 55.8062C22.0281 55.6374 22.0527 55.4805 22.0717 55.3355L21.7506 55.2336L21.7497 55.1667Z" stroke="black" stroke-opacity="0.8" stroke-width="0.2" mask="url(#path-16-outside-1_0_1)"/>
<path d="M25.432 55.7914C25.4152 55.9599 25.446 56.0923 25.5244 56.1887C25.6044 56.2852 25.7285 56.3377 25.8968 56.3461C26.0583 56.3542 26.1837 56.3175 26.273 56.236C26.3641 56.1533 26.4179 56.029 26.4344 55.8631C26.4502 55.7037 26.419 55.5758 26.3406 55.4794C26.264 55.3831 26.1398 55.3306 25.9682 55.322C25.8067 55.3139 25.6805 55.3499 25.5897 55.43C25.5005 55.5102 25.4479 55.6307 25.432 55.7914ZM25.2714 57.0748C25.1438 57.2013 25.0745 57.3202 25.0634 57.4317C25.0521 57.5457 25.103 57.6375 25.2161 57.707C25.3293 57.7765 25.4885 57.8164 25.6938 57.8267C25.9378 57.8389 26.1557 57.8075 26.3475 57.7325C26.5391 57.6587 26.6424 57.5467 26.6574 57.3963C26.6655 57.3147 26.6264 57.2489 26.54 57.199C26.4552 57.1504 26.2883 57.1199 26.0393 57.1074C25.9501 57.103 25.8523 57.1 25.7459 57.0986C25.6412 57.0972 25.54 57.0941 25.4424 57.0892C25.3886 57.0865 25.3316 57.0817 25.2714 57.0748ZM26.7559 55.4611C26.8714 55.5751 26.9218 55.7065 26.9069 55.8556C26.8862 56.0642 26.7754 56.2261 26.5746 56.341C26.3739 56.4547 26.1313 56.5044 25.847 56.4902C25.6854 56.4821 25.5427 56.4554 25.4187 56.4101C25.3166 56.5183 25.2623 56.6048 25.2559 56.6696C25.2524 56.7046 25.2727 56.7297 25.3169 56.7449C25.3628 56.7589 25.4481 56.7691 25.5726 56.7753C25.6668 56.7801 25.7772 56.7836 25.9038 56.7861C26.0304 56.7885 26.1484 56.7925 26.2577 56.798C26.5253 56.8114 26.7325 56.8615 26.8795 56.9483C27.0282 57.034 27.0949 57.1539 27.0796 57.3081C27.0564 57.5414 26.8951 57.7183 26.5956 57.8387C26.2979 57.9592 25.9672 58.0104 25.6038 57.9922C25.306 57.9772 25.0717 57.9264 24.9011 57.8397C24.732 57.7544 24.6536 57.6501 24.6659 57.527C24.6807 57.378 24.8344 57.2176 25.1271 57.0461C24.9588 56.9868 24.8789 56.9151 24.8873 56.8308C24.899 56.7129 25.0357 56.5543 25.2973 56.3551C25.047 56.2188 24.9335 56.034 24.9567 55.8008C24.9768 55.5986 25.0855 55.4405 25.2829 55.3267C25.4819 55.2129 25.7286 55.1634 26.0231 55.1782C26.1005 55.1821 26.2049 55.1951 26.3362 55.2174C26.4606 55.2418 26.5582 55.2559 26.6288 55.2594C26.8829 55.2721 27.117 55.2819 27.3311 55.2888L27.3358 55.3691L26.7559 55.4611Z" stroke="black" stroke-opacity="0.8" stroke-width="0.2" mask="url(#path-16-outside-1_0_1)"/>
<path d="M30.1598 55.7975C30.1557 56.2366 30.1555 56.5905 30.1592 56.8593C30.1611 56.9943 30.1885 57.0874 30.2415 57.1385C30.2946 57.1882 30.3945 57.2118 30.5413 57.2094C30.6577 57.2074 30.8094 57.1931 30.9964 57.1666L31.0128 57.254C30.7224 57.3719 30.4625 57.4328 30.233 57.4367C30.0491 57.4398 29.9118 57.4044 29.8214 57.3306C29.7309 57.2555 29.6846 57.1414 29.6825 56.9882C29.679 56.7362 29.6795 56.3382 29.6838 55.7939L29.3336 55.7336L29.3173 55.654L29.7068 55.622L29.8749 55.1477C29.9692 55.1267 30.055 55.1064 30.1324 55.0869L30.1579 55.1001C30.155 55.2573 30.1544 55.4041 30.1563 55.5404L30.1573 55.6125L30.9192 55.5996L30.9217 55.7846L30.1598 55.7975Z" fill="#034402"/>
<path d="M31.1707 54.5713C31.4417 54.5138 31.7123 54.4517 31.9826 54.3852L32.0066 54.3994C32.0084 54.5216 32.018 54.6954 32.0352 54.9209C32.0542 55.1462 32.0756 55.4007 32.0994 55.6843C32.3802 55.5221 32.647 55.4336 32.8996 55.4188C33.1337 55.4051 33.324 55.4447 33.4706 55.5377C33.617 55.6293 33.6985 55.7723 33.7148 55.9665L33.7724 56.6523C33.785 56.8012 33.7967 56.9209 33.8077 57.0113C33.8122 57.0449 33.8352 57.0664 33.8766 57.0756L34.1651 57.1251L34.1768 57.2045C33.9542 57.2136 33.7604 57.223 33.5953 57.2327C33.4303 57.2423 33.2469 57.255 33.0451 57.2707L33.0283 57.1917L33.2737 57.1207C33.3132 57.108 33.3334 57.0866 33.3343 57.0566C33.3344 57.0384 33.3319 56.9976 33.3265 56.9341L33.2553 56.0871C33.2419 55.9278 33.1826 55.8168 33.0775 55.754C32.9723 55.6898 32.8228 55.6634 32.6292 55.6748C32.4624 55.6845 32.2891 55.7259 32.109 55.7989L32.1824 56.6712C32.1959 56.8318 32.2099 56.9787 32.2245 57.1119C32.2292 57.148 32.2522 57.1694 32.2934 57.1761L32.561 57.219L32.5727 57.2984C32.3602 57.3069 32.1714 57.316 32.0064 57.3257C31.8414 57.3354 31.6462 57.3487 31.4208 57.3658L31.404 57.2868L31.6841 57.206C31.727 57.193 31.748 57.171 31.7471 57.1398C31.74 57.0153 31.7283 56.8565 31.7121 56.6636L31.6438 55.8515C31.6216 55.5874 31.6011 55.3536 31.5824 55.1504C31.5653 54.9471 31.5499 54.7944 31.5362 54.6924L31.1887 54.6347L31.1707 54.5713Z" fill="#034402"/>
<path d="M36.5105 56.9006C36.3791 56.9836 36.2404 57.0478 36.0945 57.0931C35.9485 57.1383 35.811 57.1677 35.6821 57.1811C35.3136 57.2194 35.0067 57.1695 34.7614 57.0314C34.5159 56.8921 34.3701 56.6789 34.3239 56.3919C34.2779 56.1061 34.345 55.8616 34.5251 55.6584C34.7069 55.455 34.9737 55.335 35.3254 55.2984C35.6202 55.2678 35.8606 55.3121 36.0467 55.4315C36.2326 55.5496 36.3448 55.7283 36.3833 55.9677C36.3891 56.0037 36.3925 56.0407 36.3935 56.0785L34.8007 56.2441C34.8453 56.5209 34.9618 56.7103 35.1502 56.8124C35.3384 56.9132 35.6126 56.9449 35.9726 56.9075C36.1334 56.8907 36.3032 56.8613 36.482 56.8192L36.5105 56.9006ZM35.8753 55.9695L35.866 55.9116C35.8366 55.7288 35.777 55.6022 35.6873 55.5316C35.5993 55.461 35.48 55.4335 35.3292 55.4491C35.1299 55.4699 34.9864 55.5411 34.8987 55.6627C34.811 55.7844 34.7731 55.9244 34.785 56.0828L35.8753 55.9695Z" fill="#034402"/>
<path d="M31.1079 54.5335L31.1603 54.5224C31.4308 54.465 31.7009 54.4031 31.9706 54.3366L31.9904 54.3317L32.008 54.3421L32.032 54.3563L32.0562 54.3706L32.0566 54.3986C32.0584 54.5193 32.0678 54.6918 32.0851 54.9169C32.0851 54.9169 32.0851 54.917 32.0851 54.9171L32.1427 55.6028C32.4039 55.4618 32.6554 55.383 32.8966 55.3689C33.1375 55.3548 33.3392 55.3952 33.4972 55.4954C33.6588 55.5965 33.7472 55.7547 33.7646 55.9623L33.8223 56.6481C33.8347 56.7965 33.8464 56.9154 33.8573 57.0049C33.8582 57.0111 33.8601 57.0139 33.8624 57.0161C33.8654 57.0189 33.8722 57.0233 33.8864 57.0266L34.1735 57.0759L34.2092 57.082L34.2145 57.1178L34.2263 57.1972L34.2344 57.2522L34.1789 57.2544C33.9564 57.2636 33.7629 57.2729 33.5982 57.2826C33.4336 57.2922 33.2505 57.3049 33.049 57.3206L33.0053 57.324L32.9962 57.2811L32.9794 57.2021L32.9697 57.1566L33.0144 57.1436L33.259 57.0729C33.2734 57.0682 33.2798 57.0633 33.2822 57.0608C33.2827 57.0602 33.2831 57.0597 33.2833 57.0593C33.2836 57.059 33.2837 57.0587 33.2838 57.0585L31.1079 54.5335ZM31.1079 54.5335L31.1226 54.585M31.1079 54.5335L31.1226 54.585M31.1226 54.585L31.1406 54.6483L31.1492 54.6788L31.1805 54.684L31.4914 54.7356C31.5037 54.8352 31.5174 54.9747 31.5325 55.1546L31.5326 55.155C31.5513 55.3581 31.5718 55.5916 31.594 55.8557L31.6623 56.6678C31.6784 56.8599 31.69 57.0177 31.6971 57.1415M31.1226 54.585L31.6971 57.1415M31.6971 57.1415L31.697 57.1433L31.6969 57.1438L31.6967 57.1442L31.6958 57.1453C31.6935 57.1477 31.6866 57.153 31.6699 57.158C31.6699 57.158 31.6698 57.1581 31.6697 57.1581L31.3902 57.2387L31.3455 57.2516L31.3551 57.2972L31.3719 57.3762L31.381 57.419L31.4246 57.4157C31.6498 57.3986 31.8447 57.3852 32.0093 57.3756C32.174 57.366 32.3625 57.3569 32.5747 57.3484L32.6303 57.3461L32.6222 57.2911L32.6105 57.2117L32.6051 57.1755L32.5689 57.1697L32.3014 57.1268C32.3014 57.1268 32.3014 57.1268 32.3014 57.1268C32.2874 57.1245 32.2816 57.1206 32.2794 57.1185C32.2778 57.117 32.2753 57.114 32.2741 57.1058C32.2596 56.9732 32.2457 56.827 32.2322 56.667L32.162 55.8318C32.3254 55.7689 32.482 55.7335 32.6321 55.7247C32.821 55.7136 32.9586 55.7401 33.0515 55.7967L33.0519 55.7969C33.1391 55.849 33.193 55.9427 33.2055 56.0913L33.2767 56.9383C33.282 57.0016 33.2844 57.0397 33.2843 57.0556C33.2843 57.0558 33.2843 57.056 33.2843 57.0562L31.6971 57.1415ZM29.3251 55.7828L29.6335 55.8359C29.6294 56.3586 29.6291 56.743 29.6325 56.9888C29.6347 57.152 29.6845 57.282 29.7894 57.3691L29.7898 57.3694C29.8934 57.4539 30.0445 57.4899 30.2338 57.4867C30.4713 57.4827 30.7375 57.4197 31.0316 57.3003L31.0695 57.2849L31.0619 57.2448L31.0456 57.1574L31.0367 57.1104L30.9894 57.1171C30.8034 57.1435 30.6539 57.1575 30.5404 57.1594C30.3955 57.1618 30.3137 57.1374 30.276 57.1022C30.2381 57.0656 30.211 56.9901 30.2092 56.8586C30.2057 56.6004 30.2057 56.2631 30.2094 55.8467L30.9226 55.8346L30.9724 55.8338L30.9717 55.7839L30.9692 55.5989L30.9685 55.5487L30.9183 55.5496L30.2066 55.5616L30.2063 55.5397L30.2063 55.5397C30.2044 55.404 30.2049 55.2578 30.2078 55.101L30.2084 55.07L30.1808 55.0557L30.1553 55.0425L30.1385 55.0338L30.1201 55.0384C30.0433 55.0578 29.9579 55.0779 29.864 55.0989L29.8371 55.105L29.8278 55.131L29.6704 55.5749L29.3132 55.6041L29.257 55.6087L29.2683 55.664L29.2846 55.7436L29.2915 55.777L29.3251 55.7828ZM36.5372 56.9429L36.5708 56.9217L36.5577 56.8841L36.5293 56.8027L36.5144 56.7602L36.4706 56.7705C36.2936 56.8122 36.1259 56.8413 35.9675 56.8577C35.6112 56.8948 35.3491 56.8622 35.1739 56.7684C35.0146 56.682 34.908 56.5254 34.8596 56.2883L36.3987 56.1283L36.4447 56.1235L36.4435 56.0772C36.4424 56.0372 36.4388 55.9981 36.4327 55.9598C36.3921 55.7079 36.2728 55.516 36.0737 55.3894C35.8752 55.2621 35.6224 55.2172 35.3202 55.2487C34.9599 55.2861 34.6802 55.4099 34.4878 55.6251L34.4877 55.6252C34.2969 55.8405 34.2263 56.1004 34.2745 56.3998C34.323 56.7013 34.4776 56.9278 34.7368 57.0749L34.7369 57.075C34.9937 57.2195 35.3117 57.2699 35.6872 57.2308C35.82 57.217 35.9607 57.1869 36.1093 57.1408C36.2595 57.0942 36.4022 57.0282 36.5372 56.9429ZM35.656 55.5706L35.6564 55.571C35.7317 55.6301 35.788 55.7418 35.8166 55.9195L35.8175 55.9252L34.8329 56.0276C34.8327 55.9016 34.8684 55.7903 34.9393 55.692C35.0161 55.5854 35.1443 55.5186 35.3344 55.4989C35.4767 55.4841 35.5814 55.5107 35.656 55.5706Z" stroke="black" stroke-opacity="0.8" stroke-width="0.1"/>
<path d="M40.9149 56.7645C40.7075 56.7724 40.4782 56.783 40.2272 56.7965L40.2129 56.7132L40.583 56.6133C40.6247 56.6026 40.6457 56.5817 40.6458 56.5505C40.6443 56.4518 40.6398 56.3259 40.6322 56.1728L40.5361 54.2309L39.6432 54.2649L39.4436 54.791L39.3431 54.8085L39.2429 54.1144L39.2598 54.0982C39.6749 54.0875 40.0722 54.075 40.4516 54.0606L41.127 54.0348C41.5047 54.0205 41.9034 54.0027 42.3231 53.9815L42.339 53.9965L42.2135 54.6855L42.113 54.703L41.9248 54.178L41.0319 54.212L41.128 56.1539C41.1356 56.307 41.1435 56.4328 41.1517 56.5312C41.155 56.5623 41.1779 56.5816 41.2205 56.5891L41.5991 56.6604L41.6083 56.7439C41.3467 56.75 41.1156 56.7568 40.9149 56.7645Z" fill="#034402"/>
<path d="M42.4572 54.866C42.7344 54.8066 42.997 54.7443 43.2449 54.679L43.2715 54.691L43.2925 54.9182C43.5891 54.7378 43.8871 54.6381 44.1867 54.619L44.2005 54.6299C44.1695 54.8259 44.1401 55.0289 44.1122 55.239L44.0125 55.259C43.9551 55.152 43.9015 55.0669 43.8516 55.0037C43.8016 54.9391 43.7295 54.9099 43.6352 54.9159C43.5443 54.9217 43.4337 54.9613 43.3034 55.0347L43.3814 55.8754C43.4001 56.0773 43.4152 56.2215 43.4266 56.308C43.4316 56.3429 43.4547 56.3635 43.4959 56.37L43.8386 56.4224L43.8535 56.5015C43.5906 56.5144 43.3766 56.5261 43.2116 56.5366C43.0467 56.5471 42.8516 56.5615 42.6264 56.5797L42.6089 56.5008L42.8957 56.4161C42.9351 56.4032 42.9543 56.3818 42.9532 56.3519C42.9497 56.2961 42.9432 56.2165 42.9336 56.1129L42.8721 55.4508C42.8525 55.2398 42.8346 55.0828 42.8182 54.9797L42.4759 54.9312L42.4572 54.866Z" fill="#034402"/>
<path d="M47.0528 55.9034C46.8077 56.0734 46.554 56.1684 46.2917 56.1884C46.0278 56.2086 45.8235 56.172 45.6789 56.0788C45.5359 55.9854 45.4538 55.845 45.4324 55.6576L45.3854 55.2466C45.3538 54.97 45.3268 54.7628 45.3043 54.625L44.9609 54.5808L44.9408 54.5159C45.2303 54.4521 45.4974 54.386 45.7423 54.3178L45.7665 54.3296C45.7737 54.4816 45.7909 54.6765 45.8181 54.9143L45.8885 55.5308C45.9063 55.6872 45.9672 55.7973 46.0712 55.8611C46.175 55.9235 46.3143 55.9481 46.4891 55.9348C46.664 55.9214 46.8389 55.8722 47.0141 55.7871L46.9197 54.9612C46.8991 54.7803 46.8784 54.6287 46.8576 54.5064L46.5168 54.462L46.4966 54.3971C46.7844 54.3334 47.0508 54.2674 47.2956 54.1992L47.3199 54.211C47.3275 54.3669 47.3451 54.5657 47.3727 54.8073C47.4263 55.2765 47.4607 55.5627 47.4759 55.6658C47.4836 55.7187 47.4935 55.7609 47.5056 55.7926C47.5177 55.8243 47.5366 55.8483 47.5622 55.8646C47.5876 55.8796 47.6235 55.8892 47.6698 55.8935C47.7176 55.8964 47.7802 55.8955 47.8577 55.8909L47.8789 55.9655C47.8043 55.9947 47.7177 56.0235 47.6192 56.0518C47.5208 56.0815 47.4531 56.0978 47.4161 56.1006C47.2464 56.1136 47.1252 56.0478 47.0528 55.9034Z" fill="#034402"/>
<path d="M40.1779 56.8049L40.1854 56.8488L40.2298 56.8464C40.4807 56.833 40.7097 56.8223 40.9168 56.8144C41.1172 56.8068 41.348 56.7999 41.6094 56.7939L41.664 56.7926L41.658 56.7384L41.6488 56.6549L41.6447 56.6181L41.6083 56.6113L41.2297 56.5399L41.2297 56.5399L41.2291 56.5398C41.2129 56.537 41.2059 56.5327 41.2035 56.5307C41.2025 56.5299 41.2023 56.5294 41.2022 56.5293L41.2022 56.5293C41.2021 56.5291 41.2017 56.5283 41.2015 56.5264C41.1933 56.4288 41.1855 56.3039 41.1779 56.1515L41.0843 54.26L41.8901 54.2293L42.0659 54.7199L42.0801 54.7595L42.1215 54.7523L42.222 54.7348L42.2564 54.7288L42.2627 54.6945L42.3882 54.0054L42.3931 53.9787L42.3733 53.9601L42.3573 53.9451L42.3418 53.9305L42.3206 53.9316C41.9011 53.9527 41.5026 53.9705 41.1251 53.9849L40.4497 54.0106C40.0705 54.025 39.6735 54.0376 39.2585 54.0482L39.2392 54.0487L39.2252 54.0621L39.2083 54.0783L39.1897 54.0961L39.1934 54.1215L39.2937 54.8157L39.301 54.8666L39.3517 54.8578L39.4522 54.8403L39.4803 54.8354L39.4904 54.8088L39.6782 54.3136L40.4886 54.2827L40.5823 56.1753C40.5898 56.3277 40.5943 56.4528 40.5958 56.5506C40.5958 56.5525 40.5955 56.5532 40.5955 56.5532L40.5953 56.5535L40.5946 56.5543C40.5928 56.5561 40.5865 56.5608 40.5706 56.5649L40.5706 56.5649L40.57 56.5651L40.1999 56.6649L40.1559 56.6768L40.1636 56.7216L40.1779 56.8049ZM42.4467 54.8171L42.3943 54.8283L42.4091 54.8798L42.4279 54.945L42.4368 54.9761L42.4689 54.9807L42.7744 55.0239C42.789 55.1248 42.805 55.2685 42.8223 55.4554L42.8838 56.1175C42.8933 56.2202 42.8998 56.2989 42.9032 56.3539L42.9032 56.3556L42.9031 56.3561L42.903 56.3562L42.9024 56.357C42.9007 56.3588 42.8951 56.3636 42.8807 56.3684L42.5948 56.4528L42.55 56.466L42.5601 56.5116L42.5776 56.5905L42.587 56.6331L42.6304 56.6296C42.8555 56.6113 43.0502 56.597 43.2148 56.5865C43.3794 56.576 43.5931 56.5643 43.856 56.5515L43.9133 56.5487L43.9027 56.4922L43.8877 56.4131L43.8811 56.3783L43.8461 56.373L43.5037 56.3206C43.5036 56.3206 43.5036 56.3206 43.5036 56.3206C43.4893 56.3184 43.4833 56.3144 43.481 56.3124C43.4794 56.311 43.4772 56.3085 43.4762 56.3012C43.4649 56.2157 43.4499 56.0725 43.4312 55.8708L43.3562 55.0627C43.4707 55.0013 43.5643 54.9705 43.6384 54.9658C43.7191 54.9606 43.774 54.9851 43.8121 55.0343L43.8124 55.0346C43.8598 55.0947 43.9118 55.177 43.9684 55.2826L43.9859 55.3153L44.0223 55.308L44.1221 55.288L44.1571 55.281L44.1618 55.2456C44.1896 55.0359 44.219 54.8332 44.2498 54.6377L44.2544 54.6088L44.2315 54.5907L44.2178 54.5798L44.2027 54.5679L44.1836 54.5691C43.898 54.5873 43.6151 54.6765 43.3351 54.8352L43.3212 54.6864L43.3186 54.6574L43.292 54.6455L43.2655 54.6335L43.2494 54.6262L43.2322 54.6307C42.9851 54.6958 42.7233 54.7579 42.4467 54.8171ZM46.2955 56.2383C46.5515 56.2187 46.7985 56.1303 47.0362 55.9749C47.0726 56.0309 47.1185 56.0748 47.1741 56.105C47.2449 56.1434 47.3277 56.1575 47.42 56.1504C47.4631 56.1472 47.5357 56.1292 47.6333 56.0998C47.7328 56.0711 47.8208 56.0419 47.8971 56.0121L47.9395 55.9956L47.927 55.9518L47.9058 55.8772L47.8948 55.8386L47.8547 55.841C47.7786 55.8455 47.7185 55.8463 47.6736 55.8436C47.6319 55.8397 47.6048 55.8314 47.5883 55.8219C47.5731 55.812 47.5609 55.7973 47.5523 55.7748C47.5421 55.7479 47.5328 55.7096 47.5253 55.6586L47.5253 55.6585C47.5103 55.5564 47.476 55.2712 47.4224 54.8017C47.3949 54.5605 47.3774 54.3629 47.3698 54.2086L47.3684 54.179L47.3418 54.1661L47.3176 54.1542L47.3005 54.1459L47.2822 54.151C47.0383 54.219 46.7729 54.2847 46.4858 54.3483L46.4328 54.36L46.4489 54.4119L46.469 54.4768L46.4785 54.5075L46.5103 54.5116L46.8144 54.5512C46.8329 54.6656 46.8515 54.8041 46.8701 54.9669L46.9603 55.7572C46.801 55.8306 46.6427 55.8729 46.4853 55.8849C46.3165 55.8978 46.1888 55.8735 46.0971 55.8183C46.0101 55.7648 45.9548 55.671 45.9382 55.5252L45.8677 54.9086C45.8406 54.6714 45.8236 54.4777 45.8165 54.3273L45.8151 54.2977L45.7885 54.2847L45.7642 54.2728L45.7472 54.2645L45.7289 54.2696C45.485 54.3376 45.2187 54.4034 44.93 54.467L44.8769 54.4788L44.893 54.5307L44.9132 54.5956L44.9227 54.6263L44.9545 54.6304L45.2608 54.6698C45.2819 54.8056 45.3069 54.9996 45.3358 55.2522L45.3827 55.6632C45.4056 55.8637 45.4947 56.0182 45.6515 56.1206L45.6518 56.1208C45.8093 56.2224 46.0262 56.2588 46.2955 56.2383Z" stroke="black" stroke-opacity="0.8" stroke-width="0.1"/>
<path d="M48.8025 53.9429C48.8027 54.3819 48.806 54.7358 48.8124 55.0045C48.8156 55.1396 48.8439 55.2324 48.8975 55.2832C48.951 55.3326 49.0511 55.3557 49.1979 55.3523C49.3143 55.3497 49.4659 55.3345 49.6527 55.3069L49.6699 55.3942C49.3807 55.5138 49.1213 55.5762 48.8919 55.5814C48.708 55.5856 48.5704 55.5511 48.4792 55.4778C48.3879 55.4032 48.3405 55.2894 48.3369 55.1362C48.3309 54.8843 48.3274 54.4863 48.3264 53.942L47.9756 53.8838L47.9585 53.8043L48.3477 53.7701L48.5112 53.2948C48.6052 53.2732 48.6908 53.2524 48.768 53.2325L48.7936 53.2455C48.7923 53.4027 48.7932 53.5495 48.7964 53.6858L48.7981 53.7579L49.5599 53.7405L49.5643 53.9255L48.8025 53.9429Z" fill="#034402"/>
<path d="M50.0678 52.2622C50.3401 52.2087 50.6122 52.1507 50.884 52.0882L50.9077 52.1028C50.9064 52.225 50.9116 52.399 50.9231 52.6247C50.9364 52.8504 50.9513 53.1052 50.968 53.3892C51.2528 53.2312 51.5217 53.1466 51.7746 53.1356C52.0089 53.1254 52.1981 53.1679 52.3423 53.263C52.4864 53.3568 52.5642 53.501 52.5756 53.6955L52.6159 54.3822C52.6247 54.5313 52.6334 54.6512 52.6421 54.7418C52.6458 54.7754 52.6682 54.7972 52.7093 54.8071L52.9965 54.8609L53.0062 54.9404C52.7834 54.9462 52.5894 54.9527 52.4242 54.9599C52.259 54.9671 52.0754 54.9771 51.8733 54.9898L51.8585 54.9105L52.1055 54.8432C52.1454 54.831 52.1661 54.81 52.1677 54.78C52.1684 54.7618 52.1668 54.7209 52.1631 54.6573L52.1133 53.8093C52.1039 53.6498 52.0475 53.5378 51.944 53.4734C51.8404 53.4077 51.6917 53.3791 51.4978 53.3875C51.3309 53.3948 51.1566 53.4336 50.9748 53.5039L51.0261 54.3773C51.0355 54.5381 51.0458 54.6852 51.057 54.8186C51.0609 54.8548 51.0833 54.8766 51.1243 54.8839L51.3907 54.9308L51.4004 55.0104C51.1878 55.0157 50.9988 55.022 50.8336 55.0292C50.6684 55.0364 50.473 55.0468 50.2473 55.0606L50.2325 54.9813L50.5145 54.9046C50.5577 54.8924 50.5792 54.8706 50.5791 54.8394C50.5752 54.7148 50.5675 54.5559 50.5562 54.3626L50.5084 53.5496C50.4929 53.285 50.4783 53.051 50.4647 52.8475C50.4527 52.6439 50.4412 52.491 50.4301 52.3888L50.0842 52.3258L50.0678 52.2622Z" fill="#034402"/>
<path d="M50.0061 52.2234L50.0581 52.2131C50.3299 52.1598 50.6015 52.1019 50.8728 52.0395L50.8928 52.0349L50.9102 52.0456L50.9339 52.0602L50.958 52.075L50.9577 52.1033C50.9564 52.224 50.9615 52.3967 50.9731 52.622C50.9731 52.622 50.9731 52.6221 50.9731 52.6222L51.0134 53.3081C51.2778 53.1711 51.531 53.0962 51.7724 53.0857C52.0135 53.0752 52.2141 53.1186 52.3697 53.2212C52.529 53.3249 52.6133 53.4847 52.6255 53.6926L52.6659 54.3792C52.6746 54.5279 52.6833 54.6469 52.6919 54.7366C52.6926 54.7427 52.6944 54.7454 52.6965 54.7475C52.6993 54.7502 52.7059 54.7547 52.7199 54.7582L53.0057 54.8118L53.0416 54.8185L53.0461 54.8548L53.0558 54.9344L53.0625 54.989L53.0075 54.9904C52.7849 54.9962 52.5912 55.0027 52.4264 55.0099C52.2616 55.0171 52.0783 55.027 51.8764 55.0397L51.8323 55.0425L51.8241 54.9989L51.8094 54.9196L51.8009 54.8743L51.8454 54.8622L52.0916 54.7951C52.1062 54.7906 52.1128 54.7858 52.1154 54.7832L50.0061 52.2234ZM50.0061 52.2234L50.0193 52.2747M50.0061 52.2234L50.0193 52.2747M50.0193 52.2747L50.0357 52.3383L50.0437 52.3693L50.0752 52.375L50.3842 52.4313C50.394 52.531 50.4042 52.6706 50.4147 52.8504L50.4148 52.8508C50.4284 53.0542 50.443 53.2881 50.4585 53.5525L50.5063 54.3656C50.5176 54.5581 50.5252 54.7162 50.5291 54.8401C50.5291 54.8416 50.5288 54.8422 50.5288 54.8423L50.5288 54.8423L50.5288 54.8423C50.5288 54.8424 50.5286 54.8429 50.5275 54.8439C50.525 54.8465 50.5178 54.8517 50.5011 54.8565C50.501 54.8565 50.5009 54.8565 50.5008 54.8565L50.2194 54.933L50.1749 54.9451L50.1833 54.9904L50.1981 55.0697L50.2062 55.1132L50.2503 55.1105C50.4758 55.0968 50.671 55.0863 50.8358 55.0791C51.0006 55.072 51.1893 55.0657 51.4017 55.0603L51.4567 55.059L51.45 55.0043L51.4403 54.9248L51.4358 54.888L51.3993 54.8816L51.133 54.8347C51.1192 54.8322 51.1136 54.8282 51.1116 54.8263C51.1101 54.8249 51.1077 54.822 51.1068 54.8138C51.0957 54.681 51.0854 54.5346 51.076 54.3744L51.0268 53.5377C51.192 53.4772 51.3496 53.444 51.5 53.4375C51.6891 53.4293 51.8259 53.4578 51.9172 53.5156L51.9176 53.5159M50.0193 52.2747L51.9176 53.5159M51.9176 53.5159C52.0031 53.5691 52.0546 53.6633 52.0634 53.8122L52.1132 54.6603C52.1169 54.7236 52.1183 54.7618 52.1178 54.7777L51.9176 53.5159ZM49.7017 55.2972L49.6925 55.2504L49.6453 55.2574C49.4596 55.2849 49.3103 55.2997 49.1968 55.3023C49.0519 55.3056 48.9698 55.2817 48.9316 55.2467C48.8933 55.2101 48.8655 55.1348 48.8624 55.0034C48.8563 54.7452 48.853 54.408 48.8525 53.9917L49.5654 53.9755L49.6155 53.9744L49.6143 53.9243L49.6099 53.7393L49.6087 53.6894L49.5588 53.6905L48.8469 53.7067L48.8464 53.6846C48.8432 53.5489 48.8423 53.4027 48.8436 53.246L48.8439 53.215L48.8163 53.201L48.7907 53.1879L48.7738 53.1793L48.7555 53.1841C48.6788 53.2039 48.5936 53.2246 48.5 53.2461L48.4729 53.2523L48.4639 53.2786L48.3109 53.7231L47.9541 53.7545L47.8977 53.7594L47.9096 53.8148L47.9267 53.8943L47.9338 53.9275L47.9674 53.9331L48.2765 53.9844C48.2776 54.5071 48.2811 54.8915 48.2869 55.1373C48.2908 55.3004 48.3418 55.4301 48.4475 55.5165L48.4479 55.5168C48.5522 55.6006 48.7037 55.6357 48.893 55.6314C49.1305 55.626 49.396 55.5615 49.689 55.4404L49.7269 55.4247L49.719 55.3845L49.7017 55.2972Z" stroke="black" stroke-opacity="0.8" stroke-width="0.1"/>
<path d="M15.7041 32.9994C15.231 32.2467 15 31.3694 15 30.4802V9.89331C15 9.34103 15.4477 8.89331 16 8.89331H46C46.5523 8.89331 47 9.34103 47 9.89331V30.7023C47 31.45 46.8379 32.1932 46.4908 32.8554C43.4778 38.6042 39.8012 40.8251 31.1149 42.8664C31.0405 42.8839 30.9595 42.884 30.8851 42.8666C22.7746 40.9775 19.2652 38.6649 15.7041 32.9994Z" fill="#012E86"/>
<path d="M46.4908 32.8554L46.8229 33.0295L46.4908 32.8554ZM30.8851 42.8666L30.9701 42.5014L30.8851 42.8666ZM31.1149 42.8664L31.0291 42.5013L31.1149 42.8664ZM14.625 9.89331V30.4802H15.375V9.89331H14.625ZM15.3866 33.199C17.1857 36.0613 18.9883 38.1023 21.3839 39.6634C23.7734 41.2206 26.7273 42.2832 30.8 43.2319L30.9701 42.5014C26.9324 41.5609 24.0763 40.5228 21.7933 39.035C19.5163 37.5511 17.7836 35.6031 16.0216 32.7999L15.3866 33.199ZM31.2007 43.2314C35.5552 42.2081 38.6965 41.131 41.1329 39.5668C43.5815 37.9948 45.2938 35.947 46.8229 33.0295L46.1586 32.6813C44.6747 35.5126 43.0423 37.4497 40.7277 38.9356C38.4011 40.4294 35.3609 41.4834 31.0291 42.5013L31.2007 43.2314ZM47.375 30.7023V9.89331H46.625V30.7023H47.375ZM46 8.51831H16V9.26831H46V8.51831ZM47.375 9.89331C47.375 9.13392 46.7594 8.51831 46 8.51831V9.26831C46.3452 9.26831 46.625 9.54813 46.625 9.89331H47.375ZM46.8229 33.0295C47.2013 32.3075 47.375 31.5034 47.375 30.7023H46.625C46.625 31.3965 46.4744 32.0788 46.1586 32.6813L46.8229 33.0295ZM30.8 43.2319C30.9308 43.2623 31.0702 43.2621 31.2007 43.2314L31.0291 42.5013C31.0108 42.5056 30.9883 42.5056 30.9701 42.5014L30.8 43.2319ZM14.625 30.4802C14.625 31.4337 14.8727 32.3813 15.3866 33.199L16.0216 32.7999C15.5893 32.112 15.375 31.3051 15.375 30.4802H14.625ZM15.375 9.89331C15.375 9.54813 15.6548 9.26831 16 9.26831V8.51831C15.2406 8.51831 14.625 9.13392 14.625 9.89331H15.375Z" fill="black"/>
<path d="M20.0843 35.4808V22.9823C23.4242 22.5233 22.4214 22.5233 23.4242 22.5233C26 21.8933 26.3252 21.7108 27.3252 21.7108C27.3252 21.7108 28.4188 22.18 29.4452 22.6842C29.8525 22.8247 29.4452 22.6842 31.5 23.3933C33 22.8174 34.3304 22.0502 36 22.0603C37.9381 22.072 40.0393 22.6003 42.7304 22.6003V29.8103V35.4808H32.5478L31.1629 36.1479L29.6152 35.4808H20.0843Z" fill="#FFFDFD" fill-opacity="0.81"/>
<path d="M21.5506 34.5314V24.2168L23.4242 22.5233M21.5506 34.5314H29.5337L31.0815 35.3012L32.4663 34.5314H41.1826M21.5506 34.5314L23.3427 32.761M41.1826 34.5314V24.2168L39.5534 22.3905M41.1826 34.5314L39.6349 32.761M39.5534 22.3905C38.237 22.2322 35.5 21.8933 33.7658 22.5233L31.5 23.3933M39.5534 22.3905L39.6349 32.7739C36.1678 31.6512 34.5957 31.5952 32.5749 32.7033L31.1785 34.1465L29.7044 32.7739C27.4297 31.703 26.0313 31.7312 23.3427 32.7739L23.4242 22.5233M31.5 23.3933C29.4452 22.6842 27.3252 21.7108 27.3252 21.7108M31.5 23.3933C33 22.8174 34.3304 22.0502 36 22.0603C37.9381 22.072 40.0393 22.6003 42.7304 22.6003V29.8103V35.4808H32.5478L31.1629 36.1479L29.6152 35.4808H20.0843V22.9823C23.4242 22.5233 22.4214 22.5233 23.4242 22.5233M31.5 23.3933C29.4452 22.6842 29.8525 22.8247 29.4452 22.6842M31.5 23.3933L29.4452 22.6842M29.4452 22.6842C26.9115 21.5542 28 21.3933 23.4242 22.5233M29.4452 22.6842C28.4188 22.18 27.3252 21.7108 27.3252 21.7108M29.4452 22.6842L27.3252 21.7108M23.4242 22.5233C26 21.8933 26.3252 21.7108 27.3252 21.7108" stroke="black" stroke-width="0.75"/>
<path d="M23.9885 46.6603L23.0024 46.533L22.7244 45.5953L20.9299 45.3637L20.4453 46.203L19.4837 46.0789L21.7342 42.3992L22.6927 42.5229L23.9885 46.6603ZM22.518 44.8998L22.0857 43.3707L21.2931 44.7417L22.518 44.8998Z" fill="white"/>
<path d="M23.9853 46.6851L24.0241 46.6901L24.0124 46.6529L22.7166 42.5154L22.7118 42.5001L22.6959 42.4981L21.7374 42.3744L21.7213 42.3723L21.7128 42.3861L19.4624 46.0658L19.4423 46.0987L19.4805 46.1037L20.4421 46.2278L20.4586 46.2299L20.467 46.2155L20.9432 45.3906L22.7051 45.6181L22.9785 46.5402L22.9831 46.5558L22.9992 46.5578L23.9853 46.6851ZM21.3335 44.7217L22.0777 43.4344L22.4837 44.8701L21.3335 44.7217Z" stroke="black" stroke-opacity="0.5" stroke-width="0.05"/>
<path d="M41.83 45.9886L40.8491 46.1513L40.3123 45.3337L38.5272 45.6298L38.3055 46.5732L37.349 46.7319L38.4419 42.5593L39.3953 42.4011L41.83 45.9886ZM39.914 44.7273L39.0588 43.3881L38.6955 44.9294L39.914 44.7273Z" fill="white"/>
<path d="M41.8341 46.0133L41.8726 46.0069L41.8507 45.9746L39.416 42.3871L39.407 42.3739L39.3912 42.3765L38.4378 42.5346L38.4218 42.5373L38.4177 42.5529L37.3248 46.7255L37.315 46.7628L37.3531 46.7565L38.3096 46.5979L38.326 46.5951L38.3298 46.5789L38.5478 45.6518L40.3004 45.3611L40.8282 46.1651L40.8371 46.1787L40.8532 46.176L41.8341 46.0133ZM38.7285 44.8986L39.0695 43.4514L39.8726 44.7089L38.7285 44.8986Z" stroke="black" stroke-opacity="0.5" stroke-width="0.05"/>
<path d="M25.1746 43.6756L26.9688 43.9081C27.0252 43.9162 27.0794 43.923 27.1316 43.929C27.5489 43.9769 28.2103 44.4722 28.2103 44.4722C28.2103 44.4722 28.3844 44.8175 28.4558 44.9671C28.5274 45.1149 28.5506 45.273 28.5255 45.4412C28.4983 45.6237 28.4163 45.7828 28.2795 45.9186C28.1447 46.0548 27.9749 46.147 27.77 46.1952C28.0327 46.3037 28.225 46.4517 28.3468 46.6394C28.4687 46.827 28.5129 47.0333 28.4793 47.2583C28.4529 47.4354 28.3793 47.6011 28.2584 47.7556C28.1399 47.9085 27.9906 48.0236 27.8105 48.1007C27.6327 48.1764 27.4219 48.2083 27.1781 48.1967C27.0252 48.1891 26.6602 48.1454 26.0831 48.0657L24.5581 47.8456L25.1746 43.6756ZM25.9469 44.7298L25.8125 45.6304L26.4054 45.716C26.7579 45.7668 26.9776 45.794 27.0645 45.7975C27.2217 45.8039 27.3498 45.7754 27.4487 45.7119C27.55 45.6469 27.61 45.5515 27.6287 45.4258C27.6467 45.3053 27.6225 45.2023 27.5562 45.1168C27.4922 45.0297 27.386 44.9674 27.2376 44.9297C27.1493 44.9079 26.8922 44.8662 26.4664 44.8048L25.9469 44.7298ZM25.7159 46.2786L25.5606 47.32L26.3979 47.4409C26.7239 47.4879 26.9319 47.5098 27.0219 47.5065C27.1595 47.5047 27.2762 47.469 27.3719 47.3996C27.4698 47.3287 27.5291 47.2242 27.5497 47.0861C27.5672 46.9692 27.5494 46.8653 27.4963 46.7744C27.4433 46.6835 27.3574 46.6105 27.2386 46.5554C27.1219 46.5006 26.8578 46.4434 26.4463 46.384L25.7159 46.2786Z" fill="white"/>
<path d="M28.2103 44.4722L28.2252 44.4522L28.2252 44.4522L28.2251 44.4521L28.2247 44.4518L28.2233 44.4507L28.2176 44.4465L28.1957 44.4306C28.1766 44.4169 28.149 44.3972 28.1146 44.3735C28.0458 44.3261 27.9496 44.2624 27.8402 44.1971C27.6228 44.0673 27.349 43.9288 27.1344 43.9042C27.0825 43.8982 27.0284 43.8914 26.9724 43.8833L26.9724 43.8833L26.972 43.8833L25.1778 43.6508L25.1535 43.6477L25.1499 43.672L24.5334 47.8419L24.5297 47.8668L24.5546 47.8703L26.0795 48.0905L26.0797 48.0905C26.6564 48.1701 27.0226 48.214 27.1768 48.2216L27.1769 48.2216C27.4235 48.2334 27.6383 48.2012 27.8203 48.1237L27.8203 48.1237C28.0042 48.0449 28.157 47.9273 28.2781 47.771C28.4014 47.6135 28.4769 47.4437 28.5041 47.262C28.5385 47.0311 28.4931 46.8186 28.3678 46.6258C28.2532 46.4492 28.0786 46.3079 27.8458 46.2009C28.0239 46.1483 28.1746 46.0601 28.2972 45.9363C28.4376 45.7969 28.5222 45.6329 28.5503 45.4449C28.5761 45.2719 28.5521 45.1088 28.4783 44.9563C28.4425 44.8813 28.3811 44.7574 28.3286 44.6524L28.2609 44.5173L28.2402 44.4761L28.2346 44.4649L28.2331 44.462L28.2327 44.4612L28.2326 44.461L28.2326 44.461L28.2326 44.461L28.2103 44.4722ZM28.2103 44.4722L28.2253 44.4522L28.2352 44.4597L28.2103 44.4722ZM25.589 47.2988L25.5853 47.3236L26.3979 47.4409C26.7239 47.4879 26.9319 47.5098 27.0219 47.5065C27.1595 47.5047 27.2762 47.469 27.3719 47.3996C27.4698 47.3287 27.5291 47.2242 27.5497 47.0861C27.5672 46.9692 27.5494 46.8653 27.4963 46.7744C27.4433 46.6835 27.3574 46.6105 27.2386 46.5554C27.1219 46.5006 26.8578 46.4434 26.4463 46.384L25.7159 46.2786M25.589 47.2988L26.4015 47.4161C26.7282 47.4633 26.9337 47.4847 27.021 47.4815L27.0215 47.4815L27.0215 47.4815C27.1549 47.4797 27.2663 47.4453 27.3572 47.3794L27.3572 47.3794C27.4489 47.3131 27.5052 47.215 27.525 47.0824C27.5417 46.9704 27.5245 46.8724 27.4747 46.787C27.4248 46.7015 27.3434 46.6316 27.2281 46.5781L27.228 46.578C27.1724 46.5519 27.0795 46.5244 26.9477 46.4959C26.8165 46.4675 26.6482 46.4384 26.4427 46.4088L25.7369 46.3069M25.589 47.2988L25.5643 47.2953L25.7159 46.2786M25.589 47.2988L25.7369 46.3069M25.7369 46.3069L25.7406 46.2823L25.7159 46.2786M25.7369 46.3069L25.7123 46.3033L25.7159 46.2786M27.0655 45.7725L27.0655 45.7725C26.9802 45.7691 26.762 45.7422 26.409 45.6912L25.841 45.6092L25.9679 44.7581L26.4628 44.8295C26.8891 44.891 27.1446 44.9325 27.2315 44.9539C27.3765 44.9908 27.4767 45.0508 27.5361 45.1316L27.5361 45.1316L27.5364 45.1321C27.598 45.2116 27.6211 45.3075 27.604 45.4221C27.5863 45.5412 27.53 45.63 27.4352 45.6908C27.3418 45.7508 27.2193 45.7788 27.0655 45.7725Z" stroke="black" stroke-opacity="0.5" stroke-width="0.05"/>
<path d="M35.1724 43.8807L36.0812 43.8293L36.2753 46.3166C36.3007 46.6418 36.2874 46.8938 36.2353 47.0726C36.1649 47.3064 36.0191 47.4995 35.7979 47.652C35.5765 47.8027 35.2759 47.8888 34.8959 47.9103C34.4503 47.9355 34.0988 47.8468 33.8417 47.6441C33.5843 47.4397 33.4383 47.1276 33.4034 46.7078L34.2563 46.5734C34.2841 46.798 34.3345 46.9549 34.4075 47.0441C34.5171 47.1797 34.6725 47.2418 34.8738 47.2304C35.0771 47.2189 35.217 47.1607 35.2934 47.0559C35.3696 46.9493 35.3953 46.737 35.3705 46.4189L35.1724 43.8807Z" fill="white"/>
<path d="M35.171 43.8557L35.1454 43.8572L35.1474 43.8826L35.3456 46.4209C35.3579 46.579 35.3576 46.7098 35.345 46.8137C35.3324 46.918 35.3077 46.9929 35.2731 47.0413C35.2031 47.1372 35.0724 47.1941 34.8724 47.2054C34.6777 47.2165 34.5306 47.1567 34.4269 47.0284L34.4268 47.0283C34.3586 46.9448 34.3088 46.794 34.2811 46.5704L34.2779 46.5447L34.2524 46.5488L33.3995 46.6831L33.3766 46.6867L33.3785 46.7099C33.4138 47.1345 33.562 47.4539 33.8261 47.6637L33.8262 47.6638C34.0897 47.8713 34.4478 47.9606 34.8973 47.9352C35.28 47.9136 35.5856 47.8268 35.8119 47.6726L35.812 47.6725C36.0374 47.5172 36.187 47.3196 36.2593 47.0799L36.2593 47.0796C36.3126 46.8965 36.3257 46.6409 36.3003 46.3146L36.1061 43.8273L36.1042 43.8029L36.0798 43.8043L35.171 43.8557Z" stroke="black" stroke-opacity="0.5" stroke-width="0.05"/>
<path d="M29.1459 44.9739L30.0599 44.9679L30.0781 47.1005C30.081 47.4389 30.0942 47.6582 30.1177 47.7583C30.1582 47.9192 30.2519 48.0484 30.3989 48.1459C30.548 48.2417 30.7501 48.2887 31.0054 48.287C31.2647 48.2854 31.4599 48.2384 31.5909 48.1463C31.7218 48.0523 31.8001 47.9381 31.8257 47.8036C31.8513 47.6692 31.8628 47.4462 31.8601 47.1346L31.8415 44.9564L32.7555 44.9505L32.7732 47.0186C32.7772 47.4913 32.7554 47.8254 32.7076 48.0209C32.6599 48.2164 32.5697 48.3817 32.437 48.5168C32.3064 48.652 32.1303 48.7606 31.9087 48.8426C31.6871 48.9228 31.3971 48.9641 31.039 48.9664C30.6067 48.9692 30.278 48.9283 30.0529 48.8438C29.8298 48.7575 29.6528 48.6459 29.522 48.5088C29.3911 48.37 29.3044 48.2246 29.2619 48.0727C29.2003 47.8475 29.1676 47.5146 29.1639 47.0742L29.1459 44.9739Z" fill="white"/>
<path d="M29.1457 44.9489L29.1207 44.949L29.1209 44.9741L29.1389 47.0744C29.1426 47.5155 29.1753 47.8509 29.2378 48.0793L29.2379 48.0794C29.2816 48.236 29.3707 48.3848 29.5038 48.526L29.5039 48.5261C29.6379 48.6664 29.8182 48.7799 30.0439 48.8672L30.0441 48.8672C30.2735 48.9533 30.6058 48.9942 31.0391 48.9914C31.3988 48.9891 31.6919 48.9476 31.9172 48.8661L31.9174 48.866C32.1416 48.7831 32.3211 48.6727 32.4549 48.5343C32.5909 48.3958 32.6832 48.2264 32.7319 48.0268C32.7804 47.828 32.8022 47.4911 32.7982 47.0184L32.7805 44.9503L32.7803 44.9253L32.7553 44.9255L31.8413 44.9314L31.8163 44.9316L31.8165 44.9566L31.8351 47.1348C31.8378 47.4463 31.8263 47.6671 31.8011 47.799C31.7769 47.926 31.7031 48.035 31.5764 48.1259C31.4514 48.2138 31.2623 48.2604 31.0052 48.262C30.7529 48.2637 30.5561 48.2171 30.4126 48.125C30.2706 48.0307 30.1809 47.9067 30.142 47.7524C30.1193 47.6554 30.106 47.4391 30.1031 47.1003L30.0849 44.9677L30.0847 44.9428L30.0597 44.9429L29.1457 44.9489Z" stroke="black" stroke-opacity="0.5" stroke-width="0.05"/>
<path d="M53.1671 3.89331V4.62824L50.7154 4.62824C50.3263 4.62824 50.0741 4.63735 49.9589 4.65555C49.7736 4.687 49.6244 4.76149 49.5111 4.87901C49.4 4.99819 49.3444 5.16041 49.3444 5.36566C49.3444 5.57422 49.3969 5.73147 49.5019 5.8374C49.6089 5.94334 49.7396 6.00707 49.894 6.02858C50.0484 6.0501 50.3047 6.06086 50.6629 6.06086H53.1671V6.79579H50.7895C50.246 6.79579 49.8621 6.77593 49.6377 6.7362C49.4134 6.69648 49.224 6.62282 49.0696 6.51523C48.9152 6.40929 48.7917 6.26694 48.699 6.08817C48.6085 5.90941 48.5632 5.67602 48.5632 5.388C48.5632 5.0404 48.6126 4.77639 48.7114 4.59596C48.8123 4.4172 48.9419 4.27567 49.1005 4.17139C49.261 4.06711 49.4288 3.99842 49.6038 3.96531C49.8631 3.91731 50.246 3.89331 50.7524 3.89331L53.1671 3.89331Z" fill="white"/>
<path d="M53.1921 3.89331V3.86831H53.1671L50.7524 3.86831C50.2456 3.86831 49.8609 3.8923 49.5992 3.94073L49.5991 3.94075C49.4207 3.9745 49.2499 4.04451 49.0868 4.15043L49.0867 4.15051C48.9246 4.25715 48.7923 4.40174 48.6896 4.58368L48.6896 4.58368L48.6895 4.58396C48.5877 4.76978 48.5382 5.03874 48.5382 5.388C48.5382 5.67834 48.5838 5.91601 48.6767 6.09947L48.6768 6.09968C48.7712 6.28176 48.8973 6.42731 49.0553 6.53574C49.2132 6.64579 49.4062 6.72059 49.6334 6.76082C49.8601 6.80097 50.246 6.82079 50.7895 6.82079H53.1671H53.1921V6.79579V6.06086V6.03586H53.1671H50.6629C50.3048 6.03586 50.05 6.02508 49.8975 6.00382C49.7483 5.98303 49.6226 5.92167 49.5195 5.81972C49.4208 5.72007 49.3694 5.57023 49.3694 5.36566C49.3694 5.16511 49.4236 5.00963 49.5293 4.89621C49.6382 4.78322 49.7822 4.71092 49.9629 4.68023C50.0759 4.6624 50.326 4.65324 50.7154 4.65324L53.1671 4.65324H53.1921V4.62824V3.89331Z" stroke="black" stroke-opacity="0.5" stroke-width="0.05"/>
<path d="M48.6404 7.78381L53.1671 7.78381V8.49888L50.1441 9.98861H53.1671V10.6714H48.6404V9.93398L51.5923 8.4666L48.6404 8.4666V7.78381Z" fill="white"/>
<path d="M48.6404 11.6321H53.1671V12.367H48.6404V11.6321Z" fill="white"/>
<path d="M48.6404 7.75881L48.6154 7.75881V7.78381V8.4666V8.4916H48.6404L51.4859 8.4916L48.6293 9.9116L48.6154 9.91849V9.93398V10.6714V10.6964H48.6404H53.1671H53.1921V10.6714V9.98861V9.96361H53.1671H50.2514L53.1782 8.52131L53.1921 8.51443V8.49888V7.78381V7.75881L53.1671 7.75881L48.6404 7.75881ZM48.6404 11.6071H48.6154V11.6321V12.367V12.392H48.6404H53.1671H53.1921V12.367V11.6321V11.6071H53.1671H48.6404Z" stroke="black" stroke-opacity="0.5" stroke-width="0.05"/>
<path d="M48.6404 14.2016L53.1671 12.9006V13.6976L49.8168 14.6187L53.1671 15.5101V16.2897L48.6404 14.9862V14.2016Z" fill="white"/>
<path d="M48.6404 16.868H53.1671V19.5669H52.4014V17.6029H51.3978V19.4303H50.6351V17.6029H49.4031V19.6364H48.6404V16.868Z" fill="white"/>
<path d="M48.6404 20.4655H53.1671V22.0123C53.1671 22.4013 53.126 22.6835 53.0436 22.859C52.9633 23.0361 52.8192 23.1776 52.6113 23.2836C52.4034 23.3895 52.1656 23.4425 51.898 23.4425C51.5584 23.4425 51.2774 23.3622 51.0551 23.2016C50.8348 23.0411 50.6958 22.8011 50.6382 22.4816C50.5229 22.6405 50.3963 22.7713 50.2584 22.8739C50.1205 22.9782 49.8755 23.118 49.5235 23.2935L48.6404 23.7379V22.859L49.6254 22.3277C49.9774 22.139 50.1987 22.0098 50.2893 21.9403C50.3819 21.8708 50.4447 21.7971 50.4776 21.7194C50.5126 21.6416 50.5301 21.5182 50.5301 21.3494V21.2004H48.6404V20.4655ZM51.2527 21.2004V21.7442C51.2527 22.0967 51.2712 22.3169 51.3083 22.4046C51.3453 22.4924 51.4091 22.561 51.4997 22.6107C51.5903 22.6604 51.7035 22.6852 51.8394 22.6852C51.9917 22.6852 52.1142 22.6521 52.2068 22.5859C52.3015 22.5213 52.3612 22.4295 52.3859 22.3103C52.3962 22.2507 52.4014 22.0719 52.4014 21.774V21.2004H51.2527Z" fill="white"/>
<path d="M48.6154 20.4405H48.6404H53.1671H53.1921V20.4655V22.0123C53.1921 22.4019 53.1511 22.6888 53.0663 22.8695C52.9832 23.0526 52.8345 23.1979 52.6227 23.3058C52.4108 23.4138 52.169 23.4675 51.898 23.4675C51.5544 23.4675 51.2679 23.3862 51.0404 23.2219L51.0403 23.2218C50.827 23.0663 50.6889 22.8388 50.6246 22.5417C50.5172 22.6821 50.4002 22.7996 50.2734 22.8939M48.6154 20.4405L49.5347 23.3158C49.8867 23.1404 50.1335 22.9997 50.2734 22.8939M48.6154 20.4405V20.4655V21.2004V21.2254H48.6404H50.5051V21.3494C50.5051 21.5175 50.4876 21.6364 50.4548 21.7091L50.4546 21.7096C50.4239 21.7821 50.3646 21.8525 50.2743 21.9203L50.2741 21.9205C50.1854 21.9885 49.9661 22.1167 49.6136 22.3056L49.6135 22.3057L48.6285 22.837L48.6154 22.8441V22.859V23.7379V23.7785L48.6516 23.7603L49.5347 23.3159L48.6154 20.4405ZM50.2734 22.8939C50.2734 22.8939 50.2735 22.8938 50.2735 22.8938L50.2584 22.8739L50.2733 22.8939C50.2734 22.8939 50.2734 22.8939 50.2734 22.8939ZM48.6335 14.1776L48.6154 14.1828V14.2016V14.9862V15.005L48.6335 15.0102L53.1602 16.3137L53.1921 16.3229V16.2897V15.5101V15.4909L53.1736 15.4859L49.9126 14.6183L53.1738 13.7217L53.1921 13.7166V13.6976V12.9006V12.8674L53.1602 12.8765L48.6335 14.1776ZM48.6404 16.843H48.6154V16.868V19.6364V19.6614H48.6404H49.4031H49.4281V19.6364V17.6279H50.6101V19.4303V19.4553H50.6351H51.3978H51.4228V19.4303V17.6279H52.3764V19.5669V19.5919H52.4014H53.1671H53.1921V19.5669V16.868V16.843H53.1671H48.6404ZM50.6382 22.4816C50.6315 22.4909 50.6247 22.5 50.6179 22.5091L50.6382 22.4816ZM51.2527 21.2254H51.2777V21.2004H51.2527V21.2254ZM52.3764 21.2004V21.2254H52.4014V21.2004H52.3764ZM52.3613 22.3056C52.3613 22.3058 52.3613 22.3059 52.3613 22.306L52.3859 22.3103L52.3614 22.3052C52.3614 22.3053 52.3614 22.3055 52.3613 22.3056Z" stroke="black" stroke-opacity="0.5" stroke-width="0.05"/>
<path d="M50.1133 24.1549L50.1998 24.87C49.9013 24.913 49.682 24.9999 49.542 25.1307C49.4021 25.2631 49.3321 25.441 49.3321 25.6645C49.3321 25.9012 49.3938 26.0791 49.5173 26.1983C49.6429 26.3191 49.7891 26.3796 49.9558 26.3796C50.0629 26.3796 50.1534 26.3539 50.2275 26.3026C50.3037 26.2529 50.3696 26.1652 50.4252 26.0394C50.4622 25.9533 50.5281 25.7572 50.6228 25.451C50.7442 25.057 50.8935 24.7806 51.0705 24.6217C51.3196 24.3982 51.6232 24.2865 51.9814 24.2865C52.212 24.2865 52.4271 24.3386 52.6268 24.4429C52.8285 24.5489 52.9819 24.7003 53.0869 24.8973C53.1919 25.0959 53.2444 25.3351 53.2444 25.6148C53.2444 26.0717 53.1198 26.4152 52.8707 26.6452C52.6216 26.877 52.2892 26.9986 51.8734 27.0102L51.8332 26.2753C52.0658 26.2438 52.2326 26.176 52.3334 26.0717C52.4364 25.9691 52.4878 25.8143 52.4878 25.6074C52.4878 25.3939 52.4333 25.2267 52.3242 25.1058C52.2542 25.0281 52.1605 24.9892 52.0432 24.9892C51.9361 24.9892 51.8445 25.0256 51.7684 25.0984C51.6716 25.1911 51.5707 25.4162 51.4658 25.7737C51.3608 26.1313 51.2517 26.3953 51.1385 26.5658C51.0273 26.7379 50.8739 26.872 50.6784 26.968C50.4849 27.0657 50.245 27.1145 49.9589 27.1145C49.6995 27.1145 49.4566 27.0566 49.2302 26.9407C49.0037 26.8248 48.8349 26.661 48.7238 26.4491C48.6147 26.2372 48.5601 25.9732 48.5601 25.657C48.5601 25.1969 48.6919 24.8435 48.9554 24.5969C49.2209 24.3502 49.6069 24.2029 50.1133 24.1549Z" fill="white"/>
<path d="M48.6404 27.9138H53.1672V28.6487H48.6404V27.9138Z" fill="white"/>
<path d="M50.1352 24.1277L50.1381 24.1519L50.2246 24.867L50.2275 24.8912L50.2033 24.8947C49.9072 24.9374 49.6938 25.0231 49.5592 25.1489C49.425 25.2758 49.3571 25.4467 49.3571 25.6645C49.3571 25.8971 49.4177 26.0674 49.5347 26.1803C49.6558 26.2969 49.7959 26.3546 49.9558 26.3546C50.0588 26.3546 50.1441 26.33 50.2133 26.282L50.2139 26.2816L50.2139 26.2817C50.2844 26.2357 50.3477 26.1528 50.4023 26.0294C50.4387 25.9448 50.5041 25.75 50.5989 25.4436C50.5989 25.4436 50.5989 25.4436 50.5989 25.4436L50.6228 25.451C50.7442 25.057 50.8935 24.7806 51.0705 24.6217L50.1352 24.1277ZM50.1352 24.1277L50.1109 24.13C49.6012 24.1783 49.2093 24.3269 48.9383 24.5785L48.9383 24.5786C48.6684 24.8312 48.5351 25.192 48.5351 25.657C48.5351 25.9759 48.5901 26.2442 48.7016 26.4605L48.7016 26.4607C48.8154 26.6774 48.9881 26.8449 49.2188 26.9629C49.4488 27.0807 49.6957 27.1395 49.9589 27.1395C50.2477 27.1395 50.4916 27.0902 50.6895 26.9904C50.8888 26.8925 51.0456 26.7556 51.1594 26.5795C51.2746 26.4058 51.3846 26.139 51.4898 25.7808C51.5421 25.6026 51.5932 25.4581 51.643 25.347C51.693 25.2353 51.7408 25.1594 51.7856 25.1165C51.8571 25.0482 51.9425 25.0142 52.0432 25.0142C52.1544 25.0142 52.2409 25.0507 52.3056 25.1226L52.3056 25.1226C52.4094 25.2376 52.4628 25.3981 52.4628 25.6074C52.4628 25.8105 52.4123 25.9577 52.3158 26.054L52.3155 26.0543C52.2203 26.1527 52.0601 26.2194 51.8299 26.2505L51.807 26.2536L51.8083 26.2766L51.8484 27.0116L51.8497 27.0359L51.8741 27.0352C52.2945 27.0235 52.6333 26.9003 52.8877 26.6636L50.1352 24.1277ZM48.6404 27.8888H48.6154V27.9138V28.6487V28.6737H48.6404H53.1672H53.1922V28.6487V27.9138V27.8888H53.1672H48.6404Z" stroke="black" stroke-opacity="0.5" stroke-width="0.05"/>
<path d="M48.6404 30.3741H52.4014V29.294H53.1671V32.1866H52.4014V31.109H48.6404V30.3741Z" fill="white"/>
<path d="M48.6404 33.8226H50.5456L53.1671 32.4893V33.3508L51.3762 34.2074L53.1671 35.0466V35.8933L50.5394 34.555H48.6404V33.8226Z" fill="white"/>
<path d="M48.6404 30.3491H48.6154V30.3741V31.109V31.134H48.6404H52.3764V32.1866V32.2116H52.4014H53.1671H53.1921V32.1866V29.294V29.269H53.1671H52.4014H52.3764V29.294V30.3491H48.6404ZM48.6404 33.7976H48.6154V33.8226V34.555V34.58H48.6404H50.5334L53.1558 35.9156L53.1921 35.9341V35.8933V35.0466V35.0307L53.1777 35.024L51.4346 34.2072L53.1779 33.3734L53.1921 33.3666V33.3508V32.4893V32.4485L53.1558 32.467L50.5396 33.7976H48.6404Z" stroke="black" stroke-opacity="0.5" stroke-width="0.05"/>
<g filter="url(#filter1_f_0_1)">
<path d="M38 25.1835L31.9945 16.8933M31.9945 16.8933H31.7633M31.9945 16.8933L35.7042 24.5557M31.9945 16.8933L36.6452 24.6483M31.9945 16.8933L37.5484 25.1835M24 25.1835L30.145 16.8933H30.5149M30.5149 16.8933L25.3548 24.6483M30.5149 16.8933H30.7923M30.5149 16.8933L24.4516 25.1835M30.7923 16.8933L26.2581 24.5557M30.7923 16.8933L26.9082 24.5557M30.7923 16.8933L27.7602 24.1819M30.7923 16.8933L28.2954 24.1819M30.7923 16.8933H31.0697M31.0697 16.8933L29.0352 23.995M31.0697 16.8933L29.6826 24.1819M31.0697 16.8933L30.201 23.995M31.0697 16.8933L30.7923 24.1819M31.0697 16.8933L31.5321 24.1819M31.0697 16.8933H31.2547M31.5321 16.8933H31.2547M31.5321 16.8933L32.3644 24.1819M31.5321 16.8933L33.2892 24.1819M31.5321 16.8933H31.7171M31.5321 16.8933L32.7344 23.9016M31.2547 16.8933L31.902 23.9016M31.7633 16.8933H31.7171M31.7633 16.8933L34.3065 24.1819M31.7633 16.8933L34.8387 24.1132M31.7171 16.8933L33.7516 24.1819" stroke="white" stroke-width="0.02"/>
</g>
<path d="M38 25.1835L31.9945 16.8933M31.9945 16.8933H31.7633M31.9945 16.8933L35.7042 24.5557M31.9945 16.8933L36.6452 24.6483M31.9945 16.8933L37.5484 25.1835M24 25.1835L30.145 16.8933H30.5149M30.5149 16.8933L25.3548 24.6483M30.5149 16.8933H30.7923M30.5149 16.8933L24.4516 25.1835M30.7923 16.8933L26.2581 24.5557M30.7923 16.8933L26.9082 24.5557M30.7923 16.8933L27.7602 24.1819M30.7923 16.8933L28.2954 24.1819M30.7923 16.8933H31.0697M31.0697 16.8933L29.0352 23.995M31.0697 16.8933L29.6826 24.1819M31.0697 16.8933L30.201 23.995M31.0697 16.8933L30.7923 24.1819M31.0697 16.8933L31.5321 24.1819M31.0697 16.8933H31.2547M31.5321 16.8933H31.2547M31.5321 16.8933L32.3644 24.1819M31.5321 16.8933L33.2892 24.1819M31.5321 16.8933H31.7171M31.5321 16.8933L32.7344 23.9016M31.2547 16.8933L31.902 23.9016M31.7633 16.8933H31.7171M31.7633 16.8933L34.3065 24.1819M31.7633 16.8933L34.8387 24.1132M31.7171 16.8933L33.7516 24.1819" stroke="white" stroke-width="0.02"/>
<path d="M30.4601 38.6239C30.727 38.3499 30.8656 37.7737 30.8656 37.7737L31.1055 32.3873L31.6053 32.4008L31.6976 37.7961C31.6976 37.7961 31.84 38.3796 32.1016 38.6683C32.4124 39.0112 33.1881 39.2652 33.1881 39.2652C33.569 39.6643 33.5475 39.8129 33.1691 39.9694C31.7292 40.2646 30.76 40.3225 29.1666 39.8612C28.817 39.5701 28.816 39.4158 29.1856 39.1571C29.1856 39.1571 30.1034 38.9902 30.4601 38.6239Z" fill="white"/>
<path d="M31.1068 32.3373L31.0577 32.336L31.0555 32.3851L30.8159 37.7665L30.8155 37.768L30.8108 37.7862C30.8066 37.8021 30.8003 37.8252 30.7918 37.8539C30.775 37.9112 30.7497 37.9906 30.7162 38.0782C30.6487 38.2553 30.5503 38.4597 30.4243 38.589C30.2554 38.7625 29.9476 38.8929 29.6739 38.9803C29.5385 39.0235 29.4139 39.0555 29.3232 39.0766C29.2779 39.0872 29.2411 39.0951 29.2157 39.1002L29.1866 39.1061L29.1791 39.1075L29.1772 39.1078L29.1768 39.1079L29.1767 39.1079L29.1767 39.1079L29.1767 39.1079L29.1659 39.1099L29.157 39.1162C29.0632 39.1818 28.9898 39.2429 28.9392 39.3032C28.8883 39.364 28.8579 39.4272 28.8564 39.496C28.855 39.5644 28.8825 39.6297 28.9298 39.6943C28.9768 39.7586 29.0461 39.8259 29.1346 39.8997L29.1426 39.9064L29.1527 39.9093C30.7558 40.3733 31.7334 40.3148 33.1791 40.0183L33.1793 40.0192L33.1882 40.0156C33.2842 39.9758 33.3624 39.9348 33.4177 39.8874C33.4743 39.839 33.5099 39.7814 33.5133 39.7106C33.5165 39.6425 33.4893 39.5711 33.4413 39.495C33.3931 39.4183 33.3203 39.3313 33.2242 39.2307L33.2156 39.2216L33.2036 39.2177L33.2036 39.2177L33.2036 39.2177L33.2036 39.2177L33.2032 39.2176L33.2016 39.2171L33.1953 39.2149L33.1706 39.2064C33.1491 39.1989 33.118 39.1878 33.0796 39.1734C33.0028 39.1445 32.8973 39.1025 32.7822 39.0499C32.5499 38.9437 32.2866 38.798 32.1387 38.6347C32.0145 38.4977 31.9162 38.2871 31.8483 38.1064C31.8147 38.0168 31.7891 37.936 31.7719 37.8777C31.7633 37.8485 31.7569 37.825 31.7526 37.8089L31.7477 37.7904L31.7475 37.7895L31.6553 32.4L31.6545 32.3521L31.6066 32.3508L31.1068 32.3373Z" stroke="#F7D008" stroke-opacity="0.5" stroke-width="0.1"/>
<path d="M30.0581 29.2897L28 29.7263M30.1336 29.4191L28.1838 30.1952M30.2469 29.597L28.467 30.6157M30.3602 29.7263L28.7502 30.923M30.4924 29.8557L29.0901 31.2464M30.6434 29.9366L29.5243 31.5213M30.8322 30.0174L29.9397 31.7154M31.0022 30.0821L30.3929 31.8933M31.9085 30.0821L32.5454 31.8933M32.0595 29.9851L32.9986 31.7639M32.1917 29.9366L33.4328 31.5213M32.3805 29.8072L33.8482 31.2464M32.5127 29.6778L34.1881 30.923M32.626 29.597L34.4902 30.6157M32.7204 29.4676L34.7545 30.2761M32.7959 29.2897L34.9056 29.8879M32.7959 28.5296L35 28.0604M32.7582 28.384L34.8301 27.6561M32.6637 28.2223L34.6035 27.2356M32.5505 28.0767L34.3014 26.896M32.451 27.9957L33.9804 26.5726M32.2861 27.8503L33.6028 26.2976M32.1162 27.7695L33.1307 26.0712M31.9274 27.6886L32.6398 25.9095M30.9644 27.6886L30.3929 25.8933M30.7945 27.7533L29.902 26.0712M30.6245 27.818L29.5055 26.2815M30.4546 27.9312L29.1467 26.5079M30.3224 28.0606L28.7691 26.7828M30.2091 28.1576L28.4859 27.1224M30.1336 28.3032L28.2404 27.462M30.0392 28.4649L28.0138 27.8987" stroke="#F7D008" stroke-opacity="0.75" stroke-width="0.1"/>
<path d="M27.039 29.3933L27 28.1217L29.6294 28.4098C29.781 27.8188 30.3217 27.3553 31.0055 27.2335L30.6665 24.8933H32.0836L31.8479 27.2602C32.4806 27.4156 32.9699 27.8682 33.1041 28.4337L35.7726 28.1413V29.3739L33.0736 29.1706C32.9051 29.6871 32.4356 30.0935 31.8404 30.2373L32.0836 32.661H30.6665L31.0138 30.2635C30.3531 30.1487 29.8246 29.7153 29.6492 29.1552L27.039 29.3933Z" fill="white"/>
<path d="M26.989 29.3948L26.9906 29.4479L27.0435 29.4431L29.6141 29.2086C29.8029 29.7567 30.3182 30.1771 30.9574 30.3039L30.617 32.6538L30.6087 32.711H30.6665H32.0836H32.1389L32.1334 32.656L31.8944 30.2752C32.4699 30.1229 32.9282 29.7284 33.1084 29.2233L35.7689 29.4238L35.8226 29.4278V29.3739V28.1413V28.0855L35.7672 28.0916L33.1419 28.3793C32.9921 27.8256 32.5138 27.3868 31.902 27.2224L32.1334 24.8983L32.1389 24.8433H32.0836H30.6665H30.6087L30.617 24.9005L30.9491 27.1934C30.2875 27.3275 29.7599 27.7766 29.5924 28.3555L27.0054 28.072L26.9483 28.0657L26.95 28.1232L26.989 29.3948Z" stroke="#F7D008" stroke-opacity="0.5" stroke-width="0.1"/>
<g filter="url(#filter2_f_0_1)">
<g filter="url(#filter3_i_0_1)">
<path d="M30.4601 38.6239C30.727 38.3499 30.8656 37.7737 30.8656 37.7737L31.1055 32.3873L31.6053 32.4008L31.6976 37.7961C31.6976 37.7961 31.84 38.3796 32.1016 38.6683C32.4124 39.0112 33.1881 39.2652 33.1881 39.2652C33.569 39.6643 33.5475 39.8129 33.1691 39.9694C31.7292 40.2646 30.76 40.3225 29.1666 39.8612C28.817 39.5701 28.816 39.4158 29.1856 39.1571C29.1856 39.1571 30.1034 38.9902 30.4601 38.6239Z" fill="white"/>
</g>
<path d="M31.1068 32.3373L31.0577 32.336L31.0555 32.3851L30.8159 37.7665L30.8155 37.768L30.8108 37.7862C30.8066 37.8021 30.8003 37.8252 30.7918 37.8539C30.775 37.9112 30.7497 37.9906 30.7162 38.0782C30.6487 38.2553 30.5503 38.4597 30.4243 38.589C30.2554 38.7625 29.9476 38.8929 29.6739 38.9803C29.5385 39.0235 29.4139 39.0555 29.3232 39.0766C29.2779 39.0872 29.2411 39.0951 29.2157 39.1002L29.1866 39.1061L29.1791 39.1075L29.1772 39.1078L29.1768 39.1079L29.1767 39.1079L29.1767 39.1079L29.1767 39.1079L29.1659 39.1099L29.157 39.1162C29.0632 39.1818 28.9898 39.2429 28.9392 39.3032C28.8883 39.364 28.8579 39.4272 28.8564 39.496C28.855 39.5644 28.8825 39.6297 28.9298 39.6943C28.9768 39.7586 29.0461 39.8259 29.1346 39.8997L29.1426 39.9064L29.1527 39.9093C30.7558 40.3733 31.7334 40.3148 33.1791 40.0183L33.1793 40.0192L33.1882 40.0156C33.2842 39.9758 33.3624 39.9348 33.4177 39.8874C33.4743 39.839 33.5099 39.7814 33.5133 39.7106C33.5165 39.6425 33.4893 39.5711 33.4413 39.495C33.3931 39.4183 33.3203 39.3313 33.2242 39.2307L33.2156 39.2216L33.2036 39.2177L33.2036 39.2177L33.2036 39.2177L33.2036 39.2177L33.2032 39.2176L33.2016 39.2171L33.1953 39.2149L33.1706 39.2064C33.1491 39.1989 33.118 39.1878 33.0796 39.1734C33.0028 39.1445 32.8973 39.1025 32.7822 39.0499C32.5499 38.9437 32.2866 38.798 32.1387 38.6347C32.0145 38.4977 31.9162 38.2871 31.8483 38.1064C31.8147 38.0168 31.7891 37.936 31.7719 37.8777C31.7633 37.8485 31.7569 37.825 31.7526 37.8089L31.7477 37.7904L31.7475 37.7895L31.6553 32.4L31.6545 32.3521L31.6066 32.3508L31.1068 32.3373Z" stroke="#F7D008" stroke-opacity="0.5" stroke-width="0.1"/>
<path d="M30.0581 29.2897L28 29.7263M30.1336 29.4191L28.1838 30.1952M30.2469 29.597L28.467 30.6157M30.3602 29.7263L28.7502 30.923M30.4924 29.8557L29.0901 31.2464M30.6434 29.9366L29.5243 31.5213M30.8322 30.0174L29.9397 31.7154M31.0022 30.0821L30.3929 31.8933M31.9085 30.0821L32.5454 31.8933M32.0595 29.9851L32.9986 31.7639M32.1917 29.9366L33.4328 31.5213M32.3805 29.8072L33.8482 31.2464M32.5127 29.6778L34.1881 30.923M32.626 29.597L34.4902 30.6157M32.7204 29.4676L34.7545 30.2761M32.7959 29.2897L34.9056 29.8879M32.7959 28.5296L35 28.0604M32.7582 28.384L34.8301 27.6561M32.6637 28.2223L34.6035 27.2356M32.5505 28.0767L34.3014 26.896M32.451 27.9957L33.9804 26.5726M32.2861 27.8503L33.6028 26.2976M32.1162 27.7695L33.1307 26.0712M31.9274 27.6886L32.6398 25.9095M30.9644 27.6886L30.3929 25.8933M30.7945 27.7533L29.902 26.0712M30.6245 27.818L29.5055 26.2815M30.4546 27.9312L29.1467 26.5079M30.3224 28.0606L28.7691 26.7828M30.2091 28.1576L28.4859 27.1224M30.1336 28.3032L28.2404 27.462M30.0392 28.4649L28.0138 27.8987" stroke="#F7D008" stroke-opacity="0.5" stroke-width="0.1"/>
<path d="M27.039 29.3933L27 28.1217L29.6294 28.4098C29.781 27.8188 30.3217 27.3553 31.0055 27.2335L30.6665 24.8933H32.0836L31.8479 27.2602C32.4806 27.4156 32.9699 27.8682 33.1041 28.4337L35.7726 28.1413V29.3739L33.0736 29.1706C32.9051 29.6871 32.4356 30.0935 31.8404 30.2373L32.0836 32.661H30.6665L31.0138 30.2635C30.3531 30.1487 29.8246 29.7153 29.6492 29.1552L27.039 29.3933Z" fill="white"/>
<path d="M26.989 29.3948L26.9906 29.4479L27.0435 29.4431L29.6141 29.2086C29.8029 29.7567 30.3182 30.1771 30.9574 30.3039L30.617 32.6538L30.6087 32.711H30.6665H32.0836H32.1389L32.1334 32.656L31.8944 30.2752C32.4699 30.1229 32.9282 29.7284 33.1084 29.2233L35.7689 29.4238L35.8226 29.4278V29.3739V28.1413V28.0855L35.7672 28.0916L33.1419 28.3793C32.9921 27.8256 32.5138 27.3868 31.902 27.2224L32.1334 24.8983L32.1389 24.8433H32.0836H30.6665H30.6087L30.617 24.9005L30.9491 27.1934C30.2875 27.3275 29.7599 27.7766 29.5924 28.3555L27.0054 28.072L26.9483 28.0657L26.95 28.1232L26.989 29.3948Z" stroke="#F7D008" stroke-opacity="0.5" stroke-width="0.1"/>
</g>
<path d="M32.5364 8.97547L31.8373 9.72815L32.3936 10.2211L32.9073 9.30411L32.5364 8.97547Z" fill="#D9D9D9" stroke="black" stroke-width="0.01"/>
<path d="M29.2019 9.35748L29.8031 10.2071L30.3074 9.65009L29.5381 8.98612L29.2019 9.35748Z" fill="#D9D9D9" stroke="black" stroke-width="0.01"/>
<path d="M30.3333 8.89331L30 9.89331H32L31.6667 8.89331H30.3333Z" fill="#D9D9D9" stroke="black" stroke-width="0.1"/>
<g filter="url(#filter4_d_0_1)">
<path d="M39.1274 12.0767L35.7269 14.7804H35.7095H32.074L31.1176 16.8359L30.1836 14.7928H26.57L26.2112 14.498L23.2274 12.1807L23.4924 12.2645L23.3177 12.121L24.5825 12.4354L25.0186 12.1825L25.0206 12.1807L25.0211 12.181L25.1245 12.121L25.9376 12.4354L26.57 12.121L27.112 12.4354L27.9251 12.121C27.9251 12.121 28.3403 12.4226 28.6478 12.4354C28.9661 12.4485 29.4007 12.1618 29.4552 12.1249L29.3958 11.9261L28.6478 9.685H28.7266H33.2695H33.3455L32.8938 11.8853L33.6166 12.4354L34.2533 12.1584L34.391 12.0767L35.0791 12.4269L35.6552 12.1405L35.7269 12.0767L36.0014 12.2397L36.5075 12.4354L37.1502 12.1558L37.3057 12.0767L37.5136 12.2619L37.8626 12.4354L38.9467 12.121L38.9182 12.1445L39.1274 12.0767Z" fill="white" shape-rendering="crispEdges"/>
<path d="M39.1274 12.0767L39.1243 12.0728L39.124 12.0725L38.9417 12.1316L38.9499 12.1249L38.9467 12.121L38.9435 12.1172L38.9432 12.1168L37.8631 12.43L37.5165 12.2577L37.309 12.073L37.3148 12.0665L37.3034 12.0723L37.1482 12.1512L37.148 12.1514L36.5074 12.4299L36.0036 12.2352L35.7294 12.0724L35.7353 12.0625L35.7235 12.073L35.6524 12.1363L35.0791 12.4213L34.3932 12.0723L34.3952 12.0684L34.3884 12.0724L34.251 12.154L33.6173 12.4296L32.8994 11.8832L33.3504 9.686L33.3455 9.685L33.3406 9.68399L33.3212 9.68H33.2695H28.7266H28.6478V9.685V9.69V9.70079L29.391 11.9276L29.3911 11.9277L29.4494 12.1228C29.417 12.1445 29.298 12.2224 29.1483 12.2944C28.9931 12.369 28.8059 12.4369 28.648 12.4304C28.4955 12.424 28.3157 12.346 28.1735 12.269C28.1025 12.2306 28.0411 12.1926 27.9975 12.1642C27.9757 12.15 27.9583 12.1381 27.9464 12.1299L27.9327 12.1203L27.9292 12.1178L27.9283 12.1172L27.9281 12.117L27.928 12.117L27.928 12.117L27.9305 12.1136L27.9233 12.1164L27.1125 12.4298L26.5725 12.1167L26.5745 12.1132L26.5677 12.1165L25.9373 12.4299L25.1263 12.1164L25.1274 12.1136L25.122 12.1167L25.0242 12.1734L25.0264 12.169L25.0173 12.1769L25.0156 12.1784L24.5817 12.43L23.3189 12.1162L23.3177 12.121L23.3165 12.1259L23.3164 12.1264L23.4692 12.252L23.2289 12.1759L23.2274 12.1807L23.2258 12.1855L23.2257 12.1858L26.208 14.5019L26.2081 14.502L26.5668 14.7967L26.5659 14.7978H26.57H30.1804L31.113 16.838L31.1176 16.8359L31.1221 16.8338L31.1246 16.8327L32.0772 14.7854H35.7095H35.7269V14.7868L35.73 14.7843L39.1305 12.0806L39.1274 12.0767Z" stroke="black" stroke-opacity="0.73" stroke-width="0.01" shape-rendering="crispEdges"/>
</g>
<g filter="url(#filter5_f_0_1)">
<path d="M39.1274 12.0767L35.7269 14.7804H35.7095H32.074L31.1176 16.8359L30.1836 14.7928H26.57L26.2112 14.498L23.2274 12.1807L23.4924 12.2645L23.3177 12.121L24.5825 12.4354L25.0186 12.1825L25.0206 12.1807L25.0211 12.181L25.1245 12.121L25.9376 12.4354L26.57 12.121L27.112 12.4354L27.9251 12.121C27.9251 12.121 28.3403 12.4226 28.6478 12.4354C28.9661 12.4485 29.4007 12.1618 29.4552 12.1249L29.3958 11.9261L28.6478 9.685H28.7266H33.2695H33.3455L32.8938 11.8853L33.6166 12.4354L34.2533 12.1584L34.391 12.0767L35.0791 12.4269L35.6552 12.1405L35.7269 12.0767L36.0014 12.2397L36.5075 12.4354L37.1502 12.1558L37.3057 12.0767L37.5136 12.2619L37.8626 12.4354L38.9467 12.121L38.9182 12.1445L39.1274 12.0767Z" fill="white"/>
<path d="M39.1274 12.0767L39.1243 12.0728L39.124 12.0725L38.9417 12.1316L38.9499 12.1249L38.9467 12.121L38.9435 12.1172L38.9432 12.1168L37.8631 12.43L37.5165 12.2577L37.309 12.073L37.3148 12.0665L37.3034 12.0723L37.1482 12.1512L37.148 12.1514L36.5074 12.4299L36.0036 12.2352L35.7294 12.0724L35.7353 12.0625L35.7235 12.073L35.6524 12.1363L35.0791 12.4213L34.3932 12.0723L34.3952 12.0684L34.3884 12.0724L34.251 12.154L33.6173 12.4296L32.8994 11.8832L33.3504 9.686L33.3455 9.685L33.3406 9.68399L33.3212 9.68H33.2695H28.7266H28.6478V9.685V9.69V9.70079L29.391 11.9276L29.3911 11.9277L29.4494 12.1228C29.417 12.1445 29.298 12.2224 29.1483 12.2944C28.9931 12.369 28.8059 12.4369 28.648 12.4304C28.4955 12.424 28.3157 12.346 28.1735 12.269C28.1025 12.2306 28.0411 12.1926 27.9975 12.1642C27.9757 12.15 27.9583 12.1381 27.9464 12.1299L27.9327 12.1203L27.9292 12.1178L27.9283 12.1172L27.9281 12.117L27.928 12.117L27.928 12.117L27.9305 12.1136L27.9233 12.1164L27.1125 12.4298L26.5725 12.1167L26.5745 12.1132L26.5677 12.1165L25.9373 12.4299L25.1263 12.1164L25.1274 12.1136L25.122 12.1167L25.0242 12.1734L25.0264 12.169L25.0173 12.1769L25.0156 12.1784L24.5817 12.43L23.3189 12.1162L23.3177 12.121L23.3165 12.1259L23.3164 12.1264L23.4692 12.252L23.2289 12.1759L23.2274 12.1807L23.2258 12.1855L23.2257 12.1858L26.208 14.5019L26.2081 14.502L26.5668 14.7967L26.5659 14.7978H26.57H30.1804L31.113 16.838L31.1176 16.8359L31.1221 16.8338L31.1246 16.8327L32.0772 14.7854H35.7095H35.7269V14.7868L35.73 14.7843L39.1305 12.0806L39.1274 12.0767Z" stroke="black" stroke-opacity="0.73" stroke-width="0.01"/>
</g>
<g filter="url(#filter6_f_0_1)">
<path d="M39.1274 18.285L35.7269 20.9887H35.7095H32.074L31.1176 23.0442L30.1836 21.0011H26.57L26.2112 20.7064L23.2274 18.389L23.4924 18.4728L23.3177 18.3293L24.5825 18.6437L25.0186 18.3908L25.0206 18.389L25.0211 18.3893L25.1245 18.3293L25.9376 18.6437L26.57 18.3293L27.112 18.6437L27.9251 18.3293C27.9251 18.3293 28.3403 18.6309 28.6478 18.6437C28.9661 18.6568 29.4007 18.3701 29.4552 18.3332L29.3958 18.1344L28.6478 15.8933H28.7266H33.2695H33.3455L32.8938 18.0936L33.6166 18.6437L34.2533 18.3667L34.391 18.285L35.0791 18.6352L35.6552 18.3488L35.7269 18.285L36.0014 18.448L36.5075 18.6437L37.1502 18.3641L37.3057 18.285L37.5136 18.4702L37.8626 18.6437L38.9467 18.3293L38.9182 18.3528L39.1274 18.285Z" fill="white"/>
<path d="M39.1274 18.285L39.1243 18.2811L39.124 18.2808L38.9417 18.3399L38.9499 18.3332L38.9467 18.3293L38.9435 18.3255L38.9432 18.3251L37.8631 18.6383L37.5165 18.466L37.309 18.2813L37.3148 18.2748L37.3034 18.2806L37.1482 18.3595L37.148 18.3597L36.5074 18.6383L36.0036 18.4435L35.7294 18.2807L35.7353 18.2708L35.7235 18.2813L35.6524 18.3446L35.0791 18.6296L34.3932 18.2806L34.3952 18.2767L34.3884 18.2807L34.251 18.3623L33.6173 18.6379L32.8994 18.0915L33.3504 15.8943L33.3455 15.8933L33.3406 15.8923L33.3212 15.8883H33.2695H28.7266H28.6478V15.8933V15.8983V15.9091L29.391 18.1359L29.3911 18.136L29.4494 18.3311C29.417 18.3529 29.298 18.4307 29.1483 18.5027C28.9931 18.5773 28.8059 18.6452 28.648 18.6387C28.4955 18.6324 28.3157 18.5543 28.1735 18.4773C28.1025 18.4389 28.0411 18.4009 27.9975 18.3725C27.9757 18.3583 27.9583 18.3465 27.9464 18.3382L27.9327 18.3287L27.9292 18.3261L27.9283 18.3255L27.9281 18.3253L27.928 18.3253L27.928 18.3253L27.9305 18.3219L27.9233 18.3247L27.1125 18.6381L26.5725 18.325L26.5745 18.3215L26.5677 18.3249L25.9373 18.6382L25.1263 18.3247L25.1274 18.3219L25.122 18.325L25.0242 18.3817L25.0264 18.3773L25.0173 18.3852L25.0156 18.3867L24.5817 18.6383L23.3189 18.3245L23.3177 18.3293L23.3165 18.3342L23.3164 18.3347L23.4692 18.4603L23.2289 18.3842L23.2274 18.389L23.2258 18.3938L23.2257 18.3941L26.208 20.7102L26.2081 20.7103L26.5668 21.005L26.5659 21.0061H26.57H30.1804L31.113 23.0463L31.1176 23.0442L31.1221 23.0422L31.1246 23.041L32.0772 20.9937H35.7095H35.7269V20.9951L35.73 20.9926L39.1305 18.2889L39.1274 18.285Z" stroke="black" stroke-opacity="0.73" stroke-width="0.01"/>
</g>
<circle cx="30.8" cy="15.7433" r="0.05" fill="#9F9976" fill-opacity="0.75"/>
<circle cx="31.4" cy="15.7433" r="0.05" fill="#9F9976" fill-opacity="0.75"/>
<defs>
<filter id="filter0_d_0_1" x="4.03601" y="26.6091" width="13.1441" height="17.0647" filterUnits="userSpaceOnUse" color-interpolation-filters="sRGB">
<feFlood flood-opacity="0" result="BackgroundImageFix"/>
<feColorMatrix in="SourceAlpha" type="matrix" values="0 0 0 0 0 0 0 0 0 0 0 0 0 0 0 0 0 0 127 0" result="hardAlpha"/>
<feOffset dy="4"/>
<feGaussianBlur stdDeviation="2"/>
<feComposite in2="hardAlpha" operator="out"/>
<feColorMatrix type="matrix" values="0 0 0 0 0 0 0 0 0 0 0 0 0 0 0 0 0 0 0.25 0"/>
<feBlend mode="normal" in2="BackgroundImageFix" result="effect1_dropShadow_0_1"/>
<feBlend mode="normal" in="SourceGraphic" in2="effect1_dropShadow_0_1" result="shape"/>
</filter>
<filter id="filter1_f_0_1" x="19.992" y="12.8765" width="22.0161" height="16.3129" filterUnits="userSpaceOnUse" color-interpolation-filters="sRGB">
<feFlood flood-opacity="0" result="BackgroundImageFix"/>
<feBlend mode="normal" in="SourceGraphic" in2="BackgroundImageFix" result="shape"/>
<feGaussianBlur stdDeviation="2" result="effect1_foregroundBlur_0_1"/>
</filter>
<filter id="filter2_f_0_1" x="25.8965" y="23.7933" width="10.9761" height="17.506" filterUnits="userSpaceOnUse" color-interpolation-filters="sRGB">
<feFlood flood-opacity="0" result="BackgroundImageFix"/>
<feBlend mode="normal" in="SourceGraphic" in2="BackgroundImageFix" result="shape"/>
<feGaussianBlur stdDeviation="0.5" result="effect1_foregroundBlur_0_1"/>
</filter>
<filter id="filter3_i_0_1" x="28.8064" y="32.2847" width="4.75714" height="9.01465" filterUnits="userSpaceOnUse" color-interpolation-filters="sRGB">
<feFlood flood-opacity="0" result="BackgroundImageFix"/>
<feBlend mode="normal" in="SourceGraphic" in2="BackgroundImageFix" result="shape"/>
<feColorMatrix in="SourceAlpha" type="matrix" values="0 0 0 0 0 0 0 0 0 0 0 0 0 0 0 0 0 0 127 0" result="hardAlpha"/>
<feOffset dy="4"/>
<feGaussianBlur stdDeviation="0.5"/>
<feComposite in2="hardAlpha" operator="arithmetic" k2="-1" k3="1"/>
<feColorMatrix type="matrix" values="0 0 0 0 0 0 0 0 0 0 0 0 0 0 0 0 0 0 0.25 0"/>
<feBlend mode="normal" in2="shape" result="effect1_innerShadow_0_1"/>
</filter>
<filter id="filter4_d_0_1" x="19.2212" y="9.67499" width="23.9124" height="15.1848" filterUnits="userSpaceOnUse" color-interpolation-filters="sRGB">
<feFlood flood-opacity="0" result="BackgroundImageFix"/>
<feColorMatrix in="SourceAlpha" type="matrix" values="0 0 0 0 0 0 0 0 0 0 0 0 0 0 0 0 0 0 127 0" result="hardAlpha"/>
<feOffset dy="4"/>
<feGaussianBlur stdDeviation="2"/>
<feComposite in2="hardAlpha" operator="out"/>
<feColorMatrix type="matrix" values="0 0 0 0 0 0 0 0 0 0 0 0 0 0 0 0 0 0 0.25 0"/>
<feBlend mode="normal" in2="BackgroundImageFix" result="effect1_dropShadow_0_1"/>
<feBlend mode="normal" in="SourceGraphic" in2="effect1_dropShadow_0_1" result="shape"/>
</filter>
<filter id="filter5_f_0_1" x="21.2212" y="7.67499" width="19.9124" height="11.1848" filterUnits="userSpaceOnUse" color-interpolation-filters="sRGB">
<feFlood flood-opacity="0" result="BackgroundImageFix"/>
<feBlend mode="normal" in="SourceGraphic" in2="BackgroundImageFix" result="shape"/>
<feGaussianBlur stdDeviation="1" result="effect1_foregroundBlur_0_1"/>
</filter>
<filter id="filter6_f_0_1" x="16.2212" y="8.8833" width="29.9124" height="21.1848" filterUnits="userSpaceOnUse" color-interpolation-filters="sRGB">
<feFlood flood-opacity="0" result="BackgroundImageFix"/>
<feBlend mode="normal" in="SourceGraphic" in2="BackgroundImageFix" result="shape"/>
<feGaussianBlur stdDeviation="3.5" result="effect1_foregroundBlur_0_1"/>
</filter>
</defs>
</svg>
